%TF.GenerationSoftware,KiCad,Pcbnew,8.0.6*%
%TF.CreationDate,2025-01-24T14:08:04+11:00*%
%TF.ProjectId,STM32F070F6P6-Robot-Arm-2,53544d33-3246-4303-9730-463650362d52,rev?*%
%TF.SameCoordinates,Original*%
%TF.FileFunction,Copper,L2,Bot*%
%TF.FilePolarity,Positive*%
%FSLAX46Y46*%
G04 Gerber Fmt 4.6, Leading zero omitted, Abs format (unit mm)*
G04 Created by KiCad (PCBNEW 8.0.6) date 2025-01-24 14:08:04*
%MOMM*%
%LPD*%
G01*
G04 APERTURE LIST*
G04 Aperture macros list*
%AMRoundRect*
0 Rectangle with rounded corners*
0 $1 Rounding radius*
0 $2 $3 $4 $5 $6 $7 $8 $9 X,Y pos of 4 corners*
0 Add a 4 corners polygon primitive as box body*
4,1,4,$2,$3,$4,$5,$6,$7,$8,$9,$2,$3,0*
0 Add four circle primitives for the rounded corners*
1,1,$1+$1,$2,$3*
1,1,$1+$1,$4,$5*
1,1,$1+$1,$6,$7*
1,1,$1+$1,$8,$9*
0 Add four rect primitives between the rounded corners*
20,1,$1+$1,$2,$3,$4,$5,0*
20,1,$1+$1,$4,$5,$6,$7,0*
20,1,$1+$1,$6,$7,$8,$9,0*
20,1,$1+$1,$8,$9,$2,$3,0*%
G04 Aperture macros list end*
%TA.AperFunction,ComponentPad*%
%ADD10R,1.700000X1.700000*%
%TD*%
%TA.AperFunction,ComponentPad*%
%ADD11O,1.700000X1.700000*%
%TD*%
%TA.AperFunction,ComponentPad*%
%ADD12R,3.500000X3.500000*%
%TD*%
%TA.AperFunction,ComponentPad*%
%ADD13RoundRect,0.750000X-0.750000X-1.000000X0.750000X-1.000000X0.750000X1.000000X-0.750000X1.000000X0*%
%TD*%
%TA.AperFunction,ComponentPad*%
%ADD14RoundRect,0.875000X-0.875000X-0.875000X0.875000X-0.875000X0.875000X0.875000X-0.875000X0.875000X0*%
%TD*%
%TA.AperFunction,ComponentPad*%
%ADD15C,1.500000*%
%TD*%
%TA.AperFunction,ComponentPad*%
%ADD16C,1.600000*%
%TD*%
%TA.AperFunction,ComponentPad*%
%ADD17C,2.000000*%
%TD*%
%TA.AperFunction,ViaPad*%
%ADD18C,0.700000*%
%TD*%
%TA.AperFunction,Conductor*%
%ADD19C,0.300000*%
%TD*%
G04 APERTURE END LIST*
D10*
%TO.P,TIM3_CH1,1,Pin_1*%
%TO.N,GND*%
X56500000Y-54500000D03*
D11*
%TO.P,TIM3_CH1,2,Pin_2*%
%TO.N,VBUS*%
X59040000Y-54500000D03*
%TO.P,TIM3_CH1,3,Pin_3*%
%TO.N,/TIM3_CH1*%
X61580000Y-54500000D03*
%TD*%
D12*
%TO.P,J10,1*%
%TO.N,VBUS*%
X64750000Y-81000000D03*
D13*
%TO.P,J10,2*%
%TO.N,GND*%
X58750000Y-81000000D03*
D14*
%TO.P,J10,3*%
%TO.N,unconnected-(J10-Pad3)*%
X61750000Y-85700000D03*
%TD*%
D15*
%TO.P,Y1,1,1*%
%TO.N,/HSE_OUT*%
X101000000Y-94500000D03*
%TO.P,Y1,2,2*%
%TO.N,/HSE_IN*%
X96120000Y-94500000D03*
%TD*%
D10*
%TO.P,TIM1_CH3,1,Pin_1*%
%TO.N,GND*%
X56460000Y-72500000D03*
D11*
%TO.P,TIM1_CH3,2,Pin_2*%
%TO.N,VBUS*%
X59000000Y-72500000D03*
%TO.P,TIM1_CH3,3,Pin_3*%
%TO.N,/TIM1_CH3*%
X61540000Y-72500000D03*
%TD*%
D10*
%TO.P,J7,1,Pin_1*%
%TO.N,+3V3*%
X100000000Y-114920000D03*
D11*
%TO.P,J7,2,Pin_2*%
%TO.N,/BOOT0*%
X100000000Y-117460000D03*
%TO.P,J7,3,Pin_3*%
%TO.N,GND*%
X100000000Y-120000000D03*
%TD*%
D10*
%TO.P,TIM1_CH2,1,Pin_1*%
%TO.N,GND*%
X56460000Y-68000000D03*
D11*
%TO.P,TIM1_CH2,2,Pin_2*%
%TO.N,VBUS*%
X59000000Y-68000000D03*
%TO.P,TIM1_CH2,3,Pin_3*%
%TO.N,/TIM1_CH2*%
X61540000Y-68000000D03*
%TD*%
D10*
%TO.P,J6,1,Pin_1*%
%TO.N,GND*%
X110000000Y-120040000D03*
D11*
%TO.P,J6,2,Pin_2*%
%TO.N,/RX*%
X110000000Y-117500000D03*
%TO.P,J6,3,Pin_3*%
%TO.N,/TX*%
X110000000Y-114960000D03*
%TD*%
D16*
%TO.P,C4_10p1,1*%
%TO.N,/HSE_IN*%
X96000000Y-99500000D03*
%TO.P,C4_10p1,2*%
%TO.N,GND*%
X96000000Y-102000000D03*
%TD*%
D17*
%TO.P,RESET1,1,C*%
%TO.N,GND*%
X89750000Y-120250000D03*
X89750000Y-113750000D03*
%TO.P,RESET1,2,D*%
%TO.N,/NRST*%
X94250000Y-120250000D03*
X94250000Y-113750000D03*
%TD*%
D16*
%TO.P,C5_10p1,1*%
%TO.N,/HSE_OUT*%
X101000000Y-99500000D03*
%TO.P,C5_10p1,2*%
%TO.N,GND*%
X101000000Y-102000000D03*
%TD*%
D10*
%TO.P,TIM14_CH1,1,Pin_1*%
%TO.N,GND*%
X56475000Y-50000000D03*
D11*
%TO.P,TIM14_CH1,2,Pin_2*%
%TO.N,VBUS*%
X59015000Y-50000000D03*
%TO.P,TIM14_CH1,3,Pin_3*%
%TO.N,/TIM14_CH1*%
X61555000Y-50000000D03*
%TD*%
D10*
%TO.P,TIM3_CH2,1,Pin_1*%
%TO.N,GND*%
X56445000Y-59000000D03*
D11*
%TO.P,TIM3_CH2,2,Pin_2*%
%TO.N,VBUS*%
X58985000Y-59000000D03*
%TO.P,TIM3_CH2,3,Pin_3*%
%TO.N,/TIM3_CH2*%
X61525000Y-59000000D03*
%TD*%
D10*
%TO.P,TIM3_CH4,1,Pin_1*%
%TO.N,GND*%
X56475000Y-63500000D03*
D11*
%TO.P,TIM3_CH4,2,Pin_2*%
%TO.N,VBUS*%
X59015000Y-63500000D03*
%TO.P,TIM3_CH4,3,Pin_3*%
%TO.N,/TIM3_CH4*%
X61555000Y-63500000D03*
%TD*%
D10*
%TO.P,J8,1,Pin_1*%
%TO.N,GND*%
X115000000Y-120025000D03*
D11*
%TO.P,J8,2,Pin_2*%
%TO.N,/SWCLK*%
X115000000Y-117485000D03*
%TO.P,J8,3,Pin_3*%
%TO.N,/SWDIO*%
X115000000Y-114945000D03*
%TD*%
D10*
%TO.P,J9,1,Pin_1*%
%TO.N,/PA5*%
X105000000Y-120000000D03*
D11*
%TO.P,J9,2,Pin_2*%
%TO.N,/PA1*%
X105000000Y-117460000D03*
%TO.P,J9,3,Pin_3*%
%TO.N,/PA0*%
X105000000Y-114920000D03*
%TD*%
D18*
%TO.N,GND*%
X74750000Y-86500000D03*
X75750000Y-63500000D03*
X75750000Y-72500000D03*
X80000000Y-74200000D03*
X56600000Y-78800000D03*
X95000000Y-75400000D03*
X87000000Y-74200000D03*
X75750000Y-56000000D03*
X75750000Y-59000000D03*
X56600000Y-83200000D03*
X56000000Y-81000000D03*
X62000000Y-47300000D03*
X67800000Y-76200000D03*
X75750000Y-68000000D03*
X81600000Y-88900000D03*
X69000000Y-74800000D03*
%TO.N,/SWCLK*%
X94004017Y-79324534D03*
X100700000Y-79300003D03*
%TO.N,/SWDIO*%
X93975000Y-78425000D03*
X100700000Y-78400000D03*
%TO.N,/PA5*%
X100700000Y-77200000D03*
X99300000Y-77200000D03*
%TD*%
D19*
%TO.N,/SWCLK*%
X100649997Y-79200003D02*
X100650000Y-79200000D01*
X94004017Y-79324534D02*
X100675469Y-79324534D01*
X100675469Y-79324534D02*
X100700000Y-79300003D01*
%TO.N,/SWDIO*%
X100700000Y-78400000D02*
X94000000Y-78400000D01*
X94000000Y-78400000D02*
X93975000Y-78425000D01*
%TO.N,/PA5*%
X99300000Y-77200000D02*
X100700000Y-77200000D01*
%TD*%
%TA.AperFunction,Conductor*%
%TO.N,GND*%
G36*
X63502592Y-45520185D02*
G01*
X63523596Y-45537183D01*
X69288173Y-51349999D01*
X71460000Y-53540000D01*
X71470294Y-53546898D01*
X71470083Y-53547212D01*
X71501162Y-53568450D01*
X71544687Y-53613974D01*
X71544693Y-53613979D01*
X71544697Y-53613983D01*
X71882534Y-53909143D01*
X71882543Y-53909150D01*
X71882551Y-53909157D01*
X71882561Y-53909164D01*
X71882562Y-53909165D01*
X72007585Y-54000000D01*
X72245515Y-54172866D01*
X72630657Y-54402978D01*
X72630665Y-54402982D01*
X72630667Y-54402983D01*
X73034866Y-54597635D01*
X73034867Y-54597635D01*
X73034875Y-54597639D01*
X73454915Y-54755283D01*
X73454922Y-54755285D01*
X73454925Y-54755286D01*
X73887387Y-54874638D01*
X73887389Y-54874638D01*
X73887395Y-54874640D01*
X74328834Y-54954749D01*
X74775676Y-54994965D01*
X74963226Y-54994965D01*
X74987639Y-54999801D01*
X74988069Y-54997636D01*
X75000000Y-55000000D01*
X86311892Y-55000000D01*
X86378931Y-55019685D01*
X86399573Y-55036319D01*
X119463681Y-88100427D01*
X119497166Y-88161750D01*
X119500000Y-88188108D01*
X119500000Y-109761334D01*
X119499578Y-109771561D01*
X119499500Y-109772503D01*
X119499500Y-119997293D01*
X119499382Y-120002702D01*
X119482614Y-120386750D01*
X119481671Y-120397526D01*
X119431849Y-120775957D01*
X119429971Y-120786610D01*
X119347354Y-121159272D01*
X119344554Y-121169721D01*
X119229775Y-121533755D01*
X119226075Y-121543921D01*
X119080002Y-121896572D01*
X119075430Y-121906376D01*
X118899183Y-122244942D01*
X118893775Y-122254310D01*
X118688681Y-122576244D01*
X118682476Y-122585105D01*
X118450110Y-122887930D01*
X118443156Y-122896217D01*
X118185284Y-123177635D01*
X118177635Y-123185284D01*
X117896217Y-123443156D01*
X117887930Y-123450110D01*
X117585105Y-123682476D01*
X117576244Y-123688681D01*
X117254310Y-123893775D01*
X117244942Y-123899183D01*
X116906376Y-124075430D01*
X116896572Y-124080002D01*
X116543921Y-124226075D01*
X116533755Y-124229775D01*
X116169721Y-124344554D01*
X116159272Y-124347354D01*
X115786610Y-124429971D01*
X115775957Y-124431849D01*
X115397526Y-124481671D01*
X115386750Y-124482614D01*
X115002703Y-124499382D01*
X114997294Y-124499500D01*
X90002706Y-124499500D01*
X89997297Y-124499382D01*
X89613249Y-124482614D01*
X89602473Y-124481671D01*
X89224042Y-124431849D01*
X89213389Y-124429971D01*
X88840727Y-124347354D01*
X88830278Y-124344554D01*
X88466244Y-124229775D01*
X88456078Y-124226075D01*
X88103427Y-124080002D01*
X88093623Y-124075430D01*
X87755057Y-123899183D01*
X87745689Y-123893775D01*
X87423755Y-123688681D01*
X87414894Y-123682476D01*
X87112069Y-123450110D01*
X87103782Y-123443156D01*
X86822364Y-123185284D01*
X86814715Y-123177635D01*
X86556843Y-122896217D01*
X86549889Y-122887930D01*
X86317523Y-122585105D01*
X86311318Y-122576244D01*
X86106224Y-122254310D01*
X86100816Y-122244942D01*
X85924569Y-121906376D01*
X85919997Y-121896572D01*
X85859285Y-121750000D01*
X85773920Y-121543911D01*
X85770224Y-121533755D01*
X85655442Y-121169710D01*
X85652648Y-121159284D01*
X85570025Y-120786597D01*
X85568152Y-120775971D01*
X85518326Y-120397506D01*
X85517386Y-120386771D01*
X85511414Y-120249994D01*
X88244859Y-120249994D01*
X88244859Y-120250000D01*
X88265385Y-120497729D01*
X88265387Y-120497738D01*
X88326412Y-120738717D01*
X88426266Y-120966364D01*
X88526564Y-121119882D01*
X89226212Y-120420234D01*
X89237482Y-120462292D01*
X89309890Y-120587708D01*
X89412292Y-120690110D01*
X89537708Y-120762518D01*
X89579765Y-120773787D01*
X88879942Y-121473609D01*
X88926768Y-121510055D01*
X88926770Y-121510056D01*
X89145385Y-121628364D01*
X89145396Y-121628369D01*
X89380506Y-121709083D01*
X89625707Y-121750000D01*
X89874293Y-121750000D01*
X90119493Y-121709083D01*
X90354603Y-121628369D01*
X90354614Y-121628364D01*
X90573228Y-121510057D01*
X90573231Y-121510055D01*
X90620056Y-121473609D01*
X89920234Y-120773787D01*
X89962292Y-120762518D01*
X90087708Y-120690110D01*
X90190110Y-120587708D01*
X90262518Y-120462292D01*
X90273787Y-120420235D01*
X90973434Y-121119882D01*
X91073731Y-120966369D01*
X91173587Y-120738717D01*
X91234612Y-120497738D01*
X91234614Y-120497729D01*
X91255141Y-120250000D01*
X91255141Y-120249998D01*
X92944532Y-120249998D01*
X92944532Y-120250000D01*
X92964364Y-120476686D01*
X92964366Y-120476697D01*
X93023258Y-120696488D01*
X93023261Y-120696497D01*
X93119431Y-120902732D01*
X93119432Y-120902734D01*
X93249954Y-121089141D01*
X93410858Y-121250045D01*
X93410861Y-121250047D01*
X93597266Y-121380568D01*
X93803504Y-121476739D01*
X94023308Y-121535635D01*
X94185230Y-121549801D01*
X94249998Y-121555468D01*
X94250000Y-121555468D01*
X94250002Y-121555468D01*
X94306673Y-121550509D01*
X94476692Y-121535635D01*
X94696496Y-121476739D01*
X94902734Y-121380568D01*
X95089139Y-121250047D01*
X95250047Y-121089139D01*
X95380568Y-120902734D01*
X95476739Y-120696496D01*
X95535635Y-120476692D01*
X95555468Y-120250000D01*
X95555467Y-120249994D01*
X95539355Y-120065826D01*
X95535635Y-120023308D01*
X95476739Y-119803504D01*
X95451789Y-119749999D01*
X98669364Y-119749999D01*
X98669364Y-119750000D01*
X99566988Y-119750000D01*
X99534075Y-119807007D01*
X99500000Y-119934174D01*
X99500000Y-120065826D01*
X99534075Y-120192993D01*
X99566988Y-120250000D01*
X98669364Y-120250000D01*
X98726567Y-120463486D01*
X98726570Y-120463492D01*
X98826399Y-120677578D01*
X98961894Y-120871082D01*
X99128917Y-121038105D01*
X99322421Y-121173600D01*
X99536507Y-121273429D01*
X99536516Y-121273433D01*
X99750000Y-121330634D01*
X99750000Y-120433012D01*
X99807007Y-120465925D01*
X99934174Y-120500000D01*
X100065826Y-120500000D01*
X100192993Y-120465925D01*
X100250000Y-120433012D01*
X100250000Y-121330633D01*
X100463483Y-121273433D01*
X100463492Y-121273429D01*
X100677578Y-121173600D01*
X100871082Y-121038105D01*
X101038105Y-120871082D01*
X101173600Y-120677578D01*
X101273429Y-120463492D01*
X101273432Y-120463486D01*
X101330636Y-120250000D01*
X100433012Y-120250000D01*
X100465925Y-120192993D01*
X100500000Y-120065826D01*
X100500000Y-119934174D01*
X100465925Y-119807007D01*
X100433012Y-119750000D01*
X101330636Y-119750000D01*
X101330635Y-119749999D01*
X101273432Y-119536513D01*
X101273429Y-119536507D01*
X101173600Y-119322422D01*
X101173599Y-119322420D01*
X101038113Y-119128926D01*
X101038108Y-119128920D01*
X100871082Y-118961894D01*
X100677578Y-118826399D01*
X100478426Y-118733533D01*
X100425987Y-118687360D01*
X100406835Y-118620167D01*
X100427051Y-118553286D01*
X100480216Y-118507951D01*
X100486005Y-118505537D01*
X100515019Y-118494298D01*
X100696302Y-118382052D01*
X100853872Y-118238407D01*
X100982366Y-118068255D01*
X101057488Y-117917389D01*
X101077403Y-117877394D01*
X101077403Y-117877393D01*
X101077405Y-117877389D01*
X101135756Y-117672310D01*
X101155429Y-117460000D01*
X101135756Y-117247690D01*
X101077405Y-117042611D01*
X101077403Y-117042606D01*
X101077403Y-117042605D01*
X100982367Y-116851746D01*
X100853872Y-116681593D01*
X100696302Y-116537948D01*
X100515019Y-116425702D01*
X100515017Y-116425701D01*
X100415608Y-116387190D01*
X100316198Y-116348679D01*
X100143456Y-116316387D01*
X100081176Y-116284719D01*
X100045903Y-116224407D01*
X100048837Y-116154599D01*
X100089046Y-116097459D01*
X100153764Y-116071128D01*
X100166233Y-116070499D01*
X100894864Y-116070499D01*
X100894879Y-116070497D01*
X100894882Y-116070497D01*
X100919987Y-116067586D01*
X100919988Y-116067585D01*
X100919991Y-116067585D01*
X101022765Y-116022206D01*
X101102206Y-115942765D01*
X101147585Y-115839991D01*
X101150500Y-115814865D01*
X101150499Y-114919999D01*
X103844571Y-114919999D01*
X103844571Y-114920000D01*
X103864244Y-115132310D01*
X103922596Y-115337392D01*
X103922596Y-115337394D01*
X104017632Y-115528253D01*
X104146127Y-115698406D01*
X104146128Y-115698407D01*
X104303698Y-115842052D01*
X104484981Y-115954298D01*
X104683802Y-116031321D01*
X104880613Y-116068111D01*
X104942893Y-116099779D01*
X104978166Y-116160092D01*
X104975232Y-116229900D01*
X104935023Y-116287040D01*
X104880613Y-116311888D01*
X104683802Y-116348679D01*
X104683799Y-116348679D01*
X104683799Y-116348680D01*
X104484982Y-116425701D01*
X104484980Y-116425702D01*
X104303699Y-116537947D01*
X104146127Y-116681593D01*
X104017632Y-116851746D01*
X103922596Y-117042605D01*
X103922596Y-117042607D01*
X103864244Y-117247689D01*
X103844571Y-117459999D01*
X103844571Y-117460000D01*
X103864244Y-117672310D01*
X103922596Y-117877392D01*
X103922596Y-117877394D01*
X104017632Y-118068253D01*
X104146127Y-118238406D01*
X104146128Y-118238407D01*
X104303698Y-118382052D01*
X104484981Y-118494298D01*
X104683802Y-118571321D01*
X104856544Y-118603612D01*
X104918823Y-118635279D01*
X104954096Y-118695591D01*
X104951162Y-118765400D01*
X104910953Y-118822540D01*
X104846235Y-118848871D01*
X104833757Y-118849500D01*
X104105143Y-118849500D01*
X104105117Y-118849502D01*
X104080012Y-118852413D01*
X104080008Y-118852415D01*
X103977235Y-118897793D01*
X103897794Y-118977234D01*
X103852415Y-119080006D01*
X103852415Y-119080008D01*
X103849500Y-119105131D01*
X103849500Y-120894856D01*
X103849502Y-120894882D01*
X103852413Y-120919987D01*
X103852415Y-120919991D01*
X103897793Y-121022764D01*
X103897794Y-121022765D01*
X103977235Y-121102206D01*
X104080009Y-121147585D01*
X104105135Y-121150500D01*
X105894864Y-121150499D01*
X105894879Y-121150497D01*
X105894882Y-121150497D01*
X105919987Y-121147586D01*
X105919988Y-121147585D01*
X105919991Y-121147585D01*
X106022765Y-121102206D01*
X106102206Y-121022765D01*
X106147585Y-120919991D01*
X106150500Y-120894865D01*
X106150499Y-119142155D01*
X108650000Y-119142155D01*
X108650000Y-119790000D01*
X109566988Y-119790000D01*
X109534075Y-119847007D01*
X109500000Y-119974174D01*
X109500000Y-120105826D01*
X109534075Y-120232993D01*
X109566988Y-120290000D01*
X108650000Y-120290000D01*
X108650000Y-120937844D01*
X108656401Y-120997372D01*
X108656403Y-120997379D01*
X108706645Y-121132086D01*
X108706649Y-121132093D01*
X108792809Y-121247187D01*
X108792812Y-121247190D01*
X108907906Y-121333350D01*
X108907913Y-121333354D01*
X109042620Y-121383596D01*
X109042627Y-121383598D01*
X109102155Y-121389999D01*
X109102172Y-121390000D01*
X109750000Y-121390000D01*
X109750000Y-120473012D01*
X109807007Y-120505925D01*
X109934174Y-120540000D01*
X110065826Y-120540000D01*
X110192993Y-120505925D01*
X110250000Y-120473012D01*
X110250000Y-121390000D01*
X110897828Y-121390000D01*
X110897844Y-121389999D01*
X110957372Y-121383598D01*
X110957379Y-121383596D01*
X111092086Y-121333354D01*
X111092093Y-121333350D01*
X111207187Y-121247190D01*
X111207190Y-121247187D01*
X111293350Y-121132093D01*
X111293354Y-121132086D01*
X111343596Y-120997379D01*
X111343598Y-120997372D01*
X111349999Y-120937844D01*
X111350000Y-120937827D01*
X111350000Y-120290000D01*
X110433012Y-120290000D01*
X110465925Y-120232993D01*
X110500000Y-120105826D01*
X110500000Y-119974174D01*
X110465925Y-119847007D01*
X110433012Y-119790000D01*
X111350000Y-119790000D01*
X111350000Y-119142172D01*
X111349999Y-119142155D01*
X111348386Y-119127155D01*
X113650000Y-119127155D01*
X113650000Y-119775000D01*
X114566988Y-119775000D01*
X114534075Y-119832007D01*
X114500000Y-119959174D01*
X114500000Y-120090826D01*
X114534075Y-120217993D01*
X114566988Y-120275000D01*
X113650000Y-120275000D01*
X113650000Y-120922844D01*
X113656401Y-120982372D01*
X113656403Y-120982379D01*
X113706645Y-121117086D01*
X113706649Y-121117093D01*
X113792809Y-121232187D01*
X113792812Y-121232190D01*
X113907906Y-121318350D01*
X113907913Y-121318354D01*
X114042620Y-121368596D01*
X114042627Y-121368598D01*
X114102155Y-121374999D01*
X114102172Y-121375000D01*
X114750000Y-121375000D01*
X114750000Y-120458012D01*
X114807007Y-120490925D01*
X114934174Y-120525000D01*
X115065826Y-120525000D01*
X115192993Y-120490925D01*
X115250000Y-120458012D01*
X115250000Y-121375000D01*
X115897828Y-121375000D01*
X115897844Y-121374999D01*
X115957372Y-121368598D01*
X115957379Y-121368596D01*
X116092086Y-121318354D01*
X116092093Y-121318350D01*
X116207187Y-121232190D01*
X116207190Y-121232187D01*
X116293350Y-121117093D01*
X116293354Y-121117086D01*
X116343596Y-120982379D01*
X116343598Y-120982372D01*
X116349999Y-120922844D01*
X116350000Y-120922827D01*
X116350000Y-120275000D01*
X115433012Y-120275000D01*
X115465925Y-120217993D01*
X115500000Y-120090826D01*
X115500000Y-119959174D01*
X115465925Y-119832007D01*
X115433012Y-119775000D01*
X116350000Y-119775000D01*
X116350000Y-119127172D01*
X116349999Y-119127155D01*
X116343598Y-119067627D01*
X116343596Y-119067620D01*
X116293354Y-118932913D01*
X116293350Y-118932906D01*
X116207190Y-118817812D01*
X116207187Y-118817809D01*
X116092093Y-118731649D01*
X116092086Y-118731645D01*
X115957379Y-118681403D01*
X115957372Y-118681401D01*
X115897844Y-118675000D01*
X115699366Y-118675000D01*
X115632327Y-118655315D01*
X115586572Y-118602511D01*
X115576628Y-118533353D01*
X115605653Y-118469797D01*
X115634089Y-118445573D01*
X115672076Y-118422052D01*
X115696302Y-118407052D01*
X115853872Y-118263407D01*
X115982366Y-118093255D01*
X115994815Y-118068253D01*
X116077403Y-117902394D01*
X116077403Y-117902393D01*
X116077405Y-117902389D01*
X116135756Y-117697310D01*
X116155429Y-117485000D01*
X116135756Y-117272690D01*
X116077405Y-117067611D01*
X116077403Y-117067606D01*
X116077403Y-117067605D01*
X115982367Y-116876746D01*
X115853872Y-116706593D01*
X115826448Y-116681593D01*
X115696302Y-116562948D01*
X115515019Y-116450702D01*
X115515017Y-116450701D01*
X115354920Y-116388680D01*
X115316198Y-116373679D01*
X115119385Y-116336888D01*
X115057106Y-116305221D01*
X115021833Y-116244908D01*
X115024767Y-116175100D01*
X115064976Y-116117960D01*
X115119384Y-116093111D01*
X115316198Y-116056321D01*
X115515019Y-115979298D01*
X115696302Y-115867052D01*
X115853872Y-115723407D01*
X115982366Y-115553255D01*
X115994815Y-115528253D01*
X116077403Y-115362394D01*
X116077403Y-115362393D01*
X116077405Y-115362389D01*
X116135756Y-115157310D01*
X116155429Y-114945000D01*
X116135756Y-114732690D01*
X116077405Y-114527611D01*
X116077403Y-114527606D01*
X116077403Y-114527605D01*
X115982367Y-114336746D01*
X115853872Y-114166593D01*
X115826448Y-114141593D01*
X115696302Y-114022948D01*
X115515019Y-113910702D01*
X115515017Y-113910701D01*
X115354920Y-113848680D01*
X115316198Y-113833679D01*
X115106610Y-113794500D01*
X114893390Y-113794500D01*
X114683802Y-113833679D01*
X114683799Y-113833679D01*
X114683799Y-113833680D01*
X114484982Y-113910701D01*
X114484980Y-113910702D01*
X114303699Y-114022947D01*
X114146127Y-114166593D01*
X114017632Y-114336746D01*
X113922596Y-114527605D01*
X113922596Y-114527607D01*
X113864244Y-114732689D01*
X113844571Y-114944999D01*
X113844571Y-114945000D01*
X113864244Y-115157310D01*
X113922596Y-115362392D01*
X113922596Y-115362394D01*
X114017632Y-115553253D01*
X114146127Y-115723406D01*
X114146128Y-115723407D01*
X114303698Y-115867052D01*
X114484981Y-115979298D01*
X114683802Y-116056321D01*
X114880613Y-116093111D01*
X114942893Y-116124779D01*
X114978166Y-116185092D01*
X114975232Y-116254900D01*
X114935023Y-116312040D01*
X114880613Y-116336888D01*
X114683802Y-116373679D01*
X114683799Y-116373679D01*
X114683799Y-116373680D01*
X114484982Y-116450701D01*
X114484980Y-116450702D01*
X114303699Y-116562947D01*
X114146127Y-116706593D01*
X114017632Y-116876746D01*
X113922596Y-117067605D01*
X113922596Y-117067607D01*
X113864244Y-117272689D01*
X113844571Y-117484999D01*
X113844571Y-117485000D01*
X113864244Y-117697310D01*
X113922596Y-117902392D01*
X113922596Y-117902394D01*
X114017632Y-118093253D01*
X114146127Y-118263406D01*
X114146128Y-118263407D01*
X114303698Y-118407052D01*
X114303700Y-118407053D01*
X114303701Y-118407054D01*
X114365911Y-118445573D01*
X114412547Y-118497601D01*
X114423651Y-118566582D01*
X114395698Y-118630617D01*
X114337563Y-118669373D01*
X114300634Y-118675000D01*
X114102155Y-118675000D01*
X114042627Y-118681401D01*
X114042620Y-118681403D01*
X113907913Y-118731645D01*
X113907906Y-118731649D01*
X113792812Y-118817809D01*
X113792809Y-118817812D01*
X113706649Y-118932906D01*
X113706645Y-118932913D01*
X113656403Y-119067620D01*
X113656401Y-119067627D01*
X113650000Y-119127155D01*
X111348386Y-119127155D01*
X111343598Y-119082627D01*
X111343596Y-119082620D01*
X111293354Y-118947913D01*
X111293350Y-118947906D01*
X111207190Y-118832812D01*
X111207187Y-118832809D01*
X111092093Y-118746649D01*
X111092086Y-118746645D01*
X110957379Y-118696403D01*
X110957372Y-118696401D01*
X110897844Y-118690000D01*
X110699366Y-118690000D01*
X110632327Y-118670315D01*
X110586572Y-118617511D01*
X110576628Y-118548353D01*
X110605653Y-118484797D01*
X110634089Y-118460573D01*
X110658314Y-118445573D01*
X110696302Y-118422052D01*
X110853872Y-118278407D01*
X110982366Y-118108255D01*
X110989836Y-118093253D01*
X111077403Y-117917394D01*
X111077403Y-117917393D01*
X111077405Y-117917389D01*
X111135756Y-117712310D01*
X111155429Y-117500000D01*
X111135756Y-117287690D01*
X111077405Y-117082611D01*
X111077403Y-117082606D01*
X111077403Y-117082605D01*
X110982367Y-116891746D01*
X110853872Y-116721593D01*
X110809994Y-116681593D01*
X110696302Y-116577948D01*
X110515019Y-116465702D01*
X110515017Y-116465701D01*
X110411764Y-116425701D01*
X110316198Y-116388679D01*
X110119385Y-116351888D01*
X110057106Y-116320221D01*
X110021833Y-116259908D01*
X110024767Y-116190100D01*
X110064976Y-116132960D01*
X110119384Y-116108111D01*
X110316198Y-116071321D01*
X110515019Y-115994298D01*
X110696302Y-115882052D01*
X110853872Y-115738407D01*
X110982366Y-115568255D01*
X110989836Y-115553253D01*
X111077403Y-115377394D01*
X111077403Y-115377393D01*
X111077405Y-115377389D01*
X111135756Y-115172310D01*
X111155429Y-114960000D01*
X111135756Y-114747690D01*
X111077405Y-114542611D01*
X111077403Y-114542606D01*
X111077403Y-114542605D01*
X110982367Y-114351746D01*
X110853872Y-114181593D01*
X110809994Y-114141593D01*
X110696302Y-114037948D01*
X110515019Y-113925702D01*
X110515017Y-113925701D01*
X110411764Y-113885701D01*
X110316198Y-113848679D01*
X110106610Y-113809500D01*
X109893390Y-113809500D01*
X109683802Y-113848679D01*
X109683799Y-113848679D01*
X109683799Y-113848680D01*
X109484982Y-113925701D01*
X109484980Y-113925702D01*
X109303699Y-114037947D01*
X109146127Y-114181593D01*
X109017632Y-114351746D01*
X108922596Y-114542605D01*
X108922596Y-114542607D01*
X108864244Y-114747689D01*
X108848278Y-114919999D01*
X108844571Y-114960000D01*
X108864244Y-115172310D01*
X108918328Y-115362394D01*
X108922596Y-115377392D01*
X108922596Y-115377394D01*
X109017632Y-115568253D01*
X109134800Y-115723407D01*
X109146128Y-115738407D01*
X109303698Y-115882052D01*
X109484981Y-115994298D01*
X109683802Y-116071321D01*
X109880613Y-116108111D01*
X109942893Y-116139779D01*
X109978166Y-116200092D01*
X109975232Y-116269900D01*
X109935023Y-116327040D01*
X109880613Y-116351888D01*
X109683802Y-116388679D01*
X109683799Y-116388679D01*
X109683799Y-116388680D01*
X109484982Y-116465701D01*
X109484980Y-116465702D01*
X109303699Y-116577947D01*
X109146127Y-116721593D01*
X109017632Y-116891746D01*
X108922596Y-117082605D01*
X108922596Y-117082607D01*
X108864244Y-117287689D01*
X108848278Y-117459999D01*
X108844571Y-117500000D01*
X108864244Y-117712310D01*
X108918328Y-117902394D01*
X108922596Y-117917392D01*
X108922596Y-117917394D01*
X109017632Y-118108253D01*
X109134800Y-118263407D01*
X109146128Y-118278407D01*
X109303698Y-118422052D01*
X109303700Y-118422053D01*
X109303701Y-118422054D01*
X109365911Y-118460573D01*
X109412547Y-118512601D01*
X109423651Y-118581582D01*
X109395698Y-118645617D01*
X109337563Y-118684373D01*
X109300634Y-118690000D01*
X109102155Y-118690000D01*
X109042627Y-118696401D01*
X109042620Y-118696403D01*
X108907913Y-118746645D01*
X108907906Y-118746649D01*
X108792812Y-118832809D01*
X108792809Y-118832812D01*
X108706649Y-118947906D01*
X108706645Y-118947913D01*
X108656403Y-119082620D01*
X108656401Y-119082627D01*
X108650000Y-119142155D01*
X106150499Y-119142155D01*
X106150499Y-119105136D01*
X106147888Y-119082620D01*
X106147586Y-119080012D01*
X106147585Y-119080010D01*
X106147585Y-119080009D01*
X106102206Y-118977235D01*
X106022765Y-118897794D01*
X106022763Y-118897793D01*
X105919992Y-118852415D01*
X105894868Y-118849500D01*
X105166243Y-118849500D01*
X105099204Y-118829815D01*
X105053449Y-118777011D01*
X105043505Y-118707853D01*
X105072530Y-118644297D01*
X105131308Y-118606523D01*
X105143441Y-118603614D01*
X105316198Y-118571321D01*
X105515019Y-118494298D01*
X105696302Y-118382052D01*
X105853872Y-118238407D01*
X105982366Y-118068255D01*
X106057488Y-117917389D01*
X106077403Y-117877394D01*
X106077403Y-117877393D01*
X106077405Y-117877389D01*
X106135756Y-117672310D01*
X106155429Y-117460000D01*
X106135756Y-117247690D01*
X106077405Y-117042611D01*
X106077403Y-117042606D01*
X106077403Y-117042605D01*
X105982367Y-116851746D01*
X105853872Y-116681593D01*
X105696302Y-116537948D01*
X105515019Y-116425702D01*
X105515017Y-116425701D01*
X105415608Y-116387190D01*
X105316198Y-116348679D01*
X105119385Y-116311888D01*
X105057106Y-116280221D01*
X105021833Y-116219908D01*
X105024767Y-116150100D01*
X105064976Y-116092960D01*
X105119384Y-116068111D01*
X105316198Y-116031321D01*
X105515019Y-115954298D01*
X105696302Y-115842052D01*
X105853872Y-115698407D01*
X105982366Y-115528255D01*
X106057488Y-115377389D01*
X106077403Y-115337394D01*
X106077403Y-115337393D01*
X106077405Y-115337389D01*
X106135756Y-115132310D01*
X106155429Y-114920000D01*
X106135756Y-114707690D01*
X106077405Y-114502611D01*
X106077403Y-114502606D01*
X106077403Y-114502605D01*
X105982367Y-114311746D01*
X105853872Y-114141593D01*
X105794763Y-114087708D01*
X105696302Y-113997948D01*
X105515019Y-113885702D01*
X105515017Y-113885701D01*
X105415608Y-113847190D01*
X105316198Y-113808679D01*
X105106610Y-113769500D01*
X104893390Y-113769500D01*
X104683802Y-113808679D01*
X104683799Y-113808679D01*
X104683799Y-113808680D01*
X104484982Y-113885701D01*
X104484980Y-113885702D01*
X104303699Y-113997947D01*
X104146127Y-114141593D01*
X104017632Y-114311746D01*
X103922596Y-114502605D01*
X103922596Y-114502607D01*
X103864244Y-114707689D01*
X103844571Y-114919999D01*
X101150499Y-114919999D01*
X101150499Y-114025136D01*
X101150245Y-114022947D01*
X101147586Y-114000012D01*
X101147585Y-114000010D01*
X101147585Y-114000009D01*
X101102206Y-113897235D01*
X101022765Y-113817794D01*
X101002124Y-113808680D01*
X100919992Y-113772415D01*
X100894865Y-113769500D01*
X99105143Y-113769500D01*
X99105117Y-113769502D01*
X99080012Y-113772413D01*
X99080008Y-113772415D01*
X98977235Y-113817793D01*
X98897794Y-113897234D01*
X98852415Y-114000006D01*
X98852415Y-114000008D01*
X98849500Y-114025131D01*
X98849500Y-115814856D01*
X98849502Y-115814882D01*
X98852413Y-115839987D01*
X98852415Y-115839991D01*
X98897793Y-115942764D01*
X98897794Y-115942765D01*
X98977235Y-116022206D01*
X99080009Y-116067585D01*
X99105135Y-116070500D01*
X99833758Y-116070499D01*
X99900795Y-116090183D01*
X99946550Y-116142987D01*
X99956494Y-116212146D01*
X99927469Y-116275702D01*
X99868691Y-116313476D01*
X99856542Y-116316388D01*
X99836038Y-116320221D01*
X99683802Y-116348679D01*
X99683800Y-116348679D01*
X99683798Y-116348680D01*
X99484982Y-116425701D01*
X99484980Y-116425702D01*
X99303699Y-116537947D01*
X99146127Y-116681593D01*
X99017632Y-116851746D01*
X98922596Y-117042605D01*
X98922596Y-117042607D01*
X98864244Y-117247689D01*
X98844571Y-117459999D01*
X98844571Y-117460000D01*
X98864244Y-117672310D01*
X98922596Y-117877392D01*
X98922596Y-117877394D01*
X99017632Y-118068253D01*
X99146127Y-118238406D01*
X99146128Y-118238407D01*
X99303698Y-118382052D01*
X99484981Y-118494298D01*
X99513961Y-118505525D01*
X99569362Y-118548095D01*
X99592954Y-118613861D01*
X99577244Y-118681942D01*
X99527222Y-118730722D01*
X99521573Y-118733533D01*
X99322422Y-118826399D01*
X99322420Y-118826400D01*
X99128926Y-118961886D01*
X99128920Y-118961891D01*
X98961891Y-119128920D01*
X98961886Y-119128926D01*
X98826400Y-119322420D01*
X98826399Y-119322422D01*
X98726570Y-119536507D01*
X98726567Y-119536513D01*
X98669364Y-119749999D01*
X95451789Y-119749999D01*
X95380568Y-119597266D01*
X95250047Y-119410861D01*
X95250045Y-119410858D01*
X95089141Y-119249954D01*
X94902734Y-119119432D01*
X94902732Y-119119431D01*
X94696497Y-119023261D01*
X94696488Y-119023258D01*
X94476697Y-118964366D01*
X94476693Y-118964365D01*
X94476692Y-118964365D01*
X94476691Y-118964364D01*
X94476686Y-118964364D01*
X94250002Y-118944532D01*
X94249998Y-118944532D01*
X94023313Y-118964364D01*
X94023302Y-118964366D01*
X93803511Y-119023258D01*
X93803502Y-119023261D01*
X93597267Y-119119431D01*
X93597265Y-119119432D01*
X93410858Y-119249954D01*
X93249954Y-119410858D01*
X93119432Y-119597265D01*
X93119431Y-119597267D01*
X93023261Y-119803502D01*
X93023258Y-119803511D01*
X92964366Y-120023302D01*
X92964364Y-120023313D01*
X92944532Y-120249998D01*
X91255141Y-120249998D01*
X91255141Y-120249994D01*
X91234614Y-120002270D01*
X91234612Y-120002261D01*
X91173587Y-119761282D01*
X91073731Y-119533630D01*
X90973434Y-119380116D01*
X90273787Y-120079764D01*
X90262518Y-120037708D01*
X90190110Y-119912292D01*
X90087708Y-119809890D01*
X89962292Y-119737482D01*
X89920235Y-119726212D01*
X90620057Y-119026390D01*
X90620056Y-119026389D01*
X90573229Y-118989943D01*
X90354614Y-118871635D01*
X90354603Y-118871630D01*
X90119493Y-118790916D01*
X89874293Y-118750000D01*
X89625707Y-118750000D01*
X89380506Y-118790916D01*
X89145396Y-118871630D01*
X89145390Y-118871632D01*
X88926761Y-118989949D01*
X88879942Y-119026388D01*
X88879942Y-119026390D01*
X89579765Y-119726212D01*
X89537708Y-119737482D01*
X89412292Y-119809890D01*
X89309890Y-119912292D01*
X89237482Y-120037708D01*
X89226212Y-120079764D01*
X88526564Y-119380116D01*
X88426267Y-119533632D01*
X88326412Y-119761282D01*
X88265387Y-120002261D01*
X88265385Y-120002270D01*
X88244859Y-120249994D01*
X85511414Y-120249994D01*
X85500618Y-120002702D01*
X85500500Y-119997293D01*
X85500500Y-113749994D01*
X88244859Y-113749994D01*
X88244859Y-113750005D01*
X88265385Y-113997729D01*
X88265387Y-113997738D01*
X88326412Y-114238717D01*
X88426266Y-114466364D01*
X88526564Y-114619882D01*
X89226212Y-113920234D01*
X89237482Y-113962292D01*
X89309890Y-114087708D01*
X89412292Y-114190110D01*
X89537708Y-114262518D01*
X89579765Y-114273787D01*
X88879942Y-114973609D01*
X88926768Y-115010055D01*
X88926770Y-115010056D01*
X89145385Y-115128364D01*
X89145396Y-115128369D01*
X89380506Y-115209083D01*
X89625707Y-115250000D01*
X89874293Y-115250000D01*
X90119493Y-115209083D01*
X90354603Y-115128369D01*
X90354614Y-115128364D01*
X90573228Y-115010057D01*
X90573231Y-115010055D01*
X90620056Y-114973609D01*
X89920234Y-114273787D01*
X89962292Y-114262518D01*
X90087708Y-114190110D01*
X90190110Y-114087708D01*
X90262518Y-113962292D01*
X90273787Y-113920235D01*
X90973434Y-114619882D01*
X91073731Y-114466369D01*
X91173587Y-114238717D01*
X91234612Y-113997738D01*
X91234614Y-113997729D01*
X91255141Y-113750005D01*
X91255141Y-113749998D01*
X92944532Y-113749998D01*
X92944532Y-113750001D01*
X92964364Y-113976686D01*
X92964366Y-113976697D01*
X93023258Y-114196488D01*
X93023261Y-114196497D01*
X93119431Y-114402732D01*
X93119432Y-114402734D01*
X93249954Y-114589141D01*
X93410858Y-114750045D01*
X93410861Y-114750047D01*
X93597266Y-114880568D01*
X93803504Y-114976739D01*
X94023308Y-115035635D01*
X94185230Y-115049801D01*
X94249998Y-115055468D01*
X94250000Y-115055468D01*
X94250002Y-115055468D01*
X94306673Y-115050509D01*
X94476692Y-115035635D01*
X94696496Y-114976739D01*
X94902734Y-114880568D01*
X95089139Y-114750047D01*
X95250047Y-114589139D01*
X95380568Y-114402734D01*
X95476739Y-114196496D01*
X95535635Y-113976692D01*
X95555468Y-113750000D01*
X95555467Y-113749994D01*
X95549133Y-113677591D01*
X95535635Y-113523308D01*
X95476739Y-113303504D01*
X95380568Y-113097266D01*
X95250047Y-112910861D01*
X95250045Y-112910858D01*
X95089141Y-112749954D01*
X94902734Y-112619432D01*
X94902732Y-112619431D01*
X94696497Y-112523261D01*
X94696488Y-112523258D01*
X94476697Y-112464366D01*
X94476693Y-112464365D01*
X94476692Y-112464365D01*
X94476691Y-112464364D01*
X94476686Y-112464364D01*
X94250002Y-112444532D01*
X94249998Y-112444532D01*
X94023313Y-112464364D01*
X94023302Y-112464366D01*
X93803511Y-112523258D01*
X93803502Y-112523261D01*
X93597267Y-112619431D01*
X93597265Y-112619432D01*
X93410858Y-112749954D01*
X93249954Y-112910858D01*
X93119432Y-113097265D01*
X93119431Y-113097267D01*
X93023261Y-113303502D01*
X93023258Y-113303511D01*
X92964366Y-113523302D01*
X92964364Y-113523313D01*
X92944532Y-113749998D01*
X91255141Y-113749998D01*
X91255141Y-113749994D01*
X91234614Y-113502270D01*
X91234612Y-113502261D01*
X91173587Y-113261282D01*
X91073731Y-113033630D01*
X90973434Y-112880116D01*
X90273787Y-113579764D01*
X90262518Y-113537708D01*
X90190110Y-113412292D01*
X90087708Y-113309890D01*
X89962292Y-113237482D01*
X89920235Y-113226212D01*
X90620057Y-112526390D01*
X90620056Y-112526389D01*
X90573229Y-112489943D01*
X90354614Y-112371635D01*
X90354603Y-112371630D01*
X90119493Y-112290916D01*
X89874293Y-112250000D01*
X89625707Y-112250000D01*
X89380506Y-112290916D01*
X89145396Y-112371630D01*
X89145390Y-112371632D01*
X88926761Y-112489949D01*
X88879942Y-112526388D01*
X88879942Y-112526390D01*
X89579765Y-113226212D01*
X89537708Y-113237482D01*
X89412292Y-113309890D01*
X89309890Y-113412292D01*
X89237482Y-113537708D01*
X89226212Y-113579764D01*
X88526564Y-112880116D01*
X88426267Y-113033632D01*
X88326412Y-113261282D01*
X88265387Y-113502261D01*
X88265385Y-113502270D01*
X88244859Y-113749994D01*
X85500500Y-113749994D01*
X85500500Y-101999997D01*
X94695034Y-101999997D01*
X94695034Y-102000002D01*
X94714858Y-102226599D01*
X94714860Y-102226610D01*
X94773730Y-102446317D01*
X94773735Y-102446331D01*
X94869863Y-102652478D01*
X94920974Y-102725472D01*
X95600000Y-102046446D01*
X95600000Y-102052661D01*
X95627259Y-102154394D01*
X95679920Y-102245606D01*
X95754394Y-102320080D01*
X95845606Y-102372741D01*
X95947339Y-102400000D01*
X95953553Y-102400000D01*
X95274526Y-103079025D01*
X95347513Y-103130132D01*
X95347521Y-103130136D01*
X95553668Y-103226264D01*
X95553682Y-103226269D01*
X95773389Y-103285139D01*
X95773400Y-103285141D01*
X95999998Y-103304966D01*
X96000002Y-103304966D01*
X96226599Y-103285141D01*
X96226610Y-103285139D01*
X96446317Y-103226269D01*
X96446331Y-103226264D01*
X96652478Y-103130136D01*
X96725471Y-103079024D01*
X96046447Y-102400000D01*
X96052661Y-102400000D01*
X96154394Y-102372741D01*
X96245606Y-102320080D01*
X96320080Y-102245606D01*
X96372741Y-102154394D01*
X96400000Y-102052661D01*
X96400000Y-102046447D01*
X97079024Y-102725471D01*
X97130136Y-102652478D01*
X97226264Y-102446331D01*
X97226269Y-102446317D01*
X97285139Y-102226610D01*
X97285141Y-102226599D01*
X97304966Y-102000002D01*
X97304966Y-101999997D01*
X99695034Y-101999997D01*
X99695034Y-102000002D01*
X99714858Y-102226599D01*
X99714860Y-102226610D01*
X99773730Y-102446317D01*
X99773735Y-102446331D01*
X99869863Y-102652478D01*
X99920974Y-102725472D01*
X100600000Y-102046446D01*
X100600000Y-102052661D01*
X100627259Y-102154394D01*
X100679920Y-102245606D01*
X100754394Y-102320080D01*
X100845606Y-102372741D01*
X100947339Y-102400000D01*
X100953553Y-102400000D01*
X100274526Y-103079025D01*
X100347513Y-103130132D01*
X100347521Y-103130136D01*
X100553668Y-103226264D01*
X100553682Y-103226269D01*
X100773389Y-103285139D01*
X100773400Y-103285141D01*
X100999998Y-103304966D01*
X101000002Y-103304966D01*
X101226599Y-103285141D01*
X101226610Y-103285139D01*
X101446317Y-103226269D01*
X101446331Y-103226264D01*
X101652478Y-103130136D01*
X101725471Y-103079024D01*
X101046447Y-102400000D01*
X101052661Y-102400000D01*
X101154394Y-102372741D01*
X101245606Y-102320080D01*
X101320080Y-102245606D01*
X101372741Y-102154394D01*
X101400000Y-102052661D01*
X101400000Y-102046447D01*
X102079024Y-102725471D01*
X102130136Y-102652478D01*
X102226264Y-102446331D01*
X102226269Y-102446317D01*
X102285139Y-102226610D01*
X102285141Y-102226599D01*
X102304966Y-102000002D01*
X102304966Y-101999997D01*
X102285141Y-101773400D01*
X102285139Y-101773389D01*
X102226269Y-101553682D01*
X102226264Y-101553668D01*
X102130136Y-101347521D01*
X102130132Y-101347513D01*
X102079025Y-101274526D01*
X101400000Y-101953551D01*
X101400000Y-101947339D01*
X101372741Y-101845606D01*
X101320080Y-101754394D01*
X101245606Y-101679920D01*
X101154394Y-101627259D01*
X101052661Y-101600000D01*
X101046448Y-101600000D01*
X101725472Y-100920974D01*
X101652478Y-100869863D01*
X101446331Y-100773735D01*
X101446322Y-100773732D01*
X101406464Y-100763052D01*
X101346804Y-100726686D01*
X101316276Y-100663839D01*
X101324571Y-100594463D01*
X101369057Y-100540586D01*
X101393761Y-100527652D01*
X101492637Y-100489348D01*
X101666041Y-100381981D01*
X101816764Y-100244579D01*
X101939673Y-100081821D01*
X102030582Y-99899250D01*
X102086397Y-99703083D01*
X102105215Y-99500000D01*
X102086397Y-99296917D01*
X102030582Y-99100750D01*
X101939673Y-98918179D01*
X101816764Y-98755421D01*
X101816762Y-98755418D01*
X101666041Y-98618019D01*
X101666039Y-98618017D01*
X101492642Y-98510655D01*
X101492635Y-98510651D01*
X101397546Y-98473814D01*
X101302456Y-98436976D01*
X101101976Y-98399500D01*
X100898024Y-98399500D01*
X100697544Y-98436976D01*
X100697541Y-98436976D01*
X100697541Y-98436977D01*
X100507364Y-98510651D01*
X100507357Y-98510655D01*
X100333960Y-98618017D01*
X100333958Y-98618019D01*
X100183237Y-98755418D01*
X100060327Y-98918178D01*
X99969422Y-99100739D01*
X99969417Y-99100752D01*
X99913602Y-99296917D01*
X99894785Y-99499999D01*
X99894785Y-99500000D01*
X99913602Y-99703082D01*
X99969417Y-99899247D01*
X99969422Y-99899260D01*
X100060327Y-100081821D01*
X100183237Y-100244581D01*
X100333958Y-100381980D01*
X100333960Y-100381982D01*
X100433141Y-100443392D01*
X100507363Y-100489348D01*
X100606233Y-100527650D01*
X100661635Y-100570223D01*
X100685226Y-100635990D01*
X100669515Y-100704070D01*
X100619491Y-100752849D01*
X100593535Y-100763051D01*
X100553688Y-100773728D01*
X100553673Y-100773734D01*
X100347516Y-100869866D01*
X100347512Y-100869868D01*
X100274526Y-100920973D01*
X100274526Y-100920974D01*
X100953553Y-101600000D01*
X100947339Y-101600000D01*
X100845606Y-101627259D01*
X100754394Y-101679920D01*
X100679920Y-101754394D01*
X100627259Y-101845606D01*
X100600000Y-101947339D01*
X100600000Y-101953552D01*
X99920974Y-101274526D01*
X99920973Y-101274526D01*
X99869868Y-101347512D01*
X99869866Y-101347516D01*
X99773734Y-101553673D01*
X99773730Y-101553682D01*
X99714860Y-101773389D01*
X99714858Y-101773400D01*
X99695034Y-101999997D01*
X97304966Y-101999997D01*
X97285141Y-101773400D01*
X97285139Y-101773389D01*
X97226269Y-101553682D01*
X97226264Y-101553668D01*
X97130136Y-101347521D01*
X97130132Y-101347513D01*
X97079025Y-101274526D01*
X96400000Y-101953551D01*
X96400000Y-101947339D01*
X96372741Y-101845606D01*
X96320080Y-101754394D01*
X96245606Y-101679920D01*
X96154394Y-101627259D01*
X96052661Y-101600000D01*
X96046448Y-101600000D01*
X96725472Y-100920974D01*
X96652478Y-100869863D01*
X96446331Y-100773735D01*
X96446322Y-100773732D01*
X96406464Y-100763052D01*
X96346804Y-100726686D01*
X96316276Y-100663839D01*
X96324571Y-100594463D01*
X96369057Y-100540586D01*
X96393761Y-100527652D01*
X96492637Y-100489348D01*
X96666041Y-100381981D01*
X96816764Y-100244579D01*
X96939673Y-100081821D01*
X97030582Y-99899250D01*
X97086397Y-99703083D01*
X97105215Y-99500000D01*
X97086397Y-99296917D01*
X97030582Y-99100750D01*
X96939673Y-98918179D01*
X96816764Y-98755421D01*
X96816762Y-98755418D01*
X96666041Y-98618019D01*
X96666039Y-98618017D01*
X96492642Y-98510655D01*
X96492635Y-98510651D01*
X96397546Y-98473814D01*
X96302456Y-98436976D01*
X96101976Y-98399500D01*
X95898024Y-98399500D01*
X95697544Y-98436976D01*
X95697541Y-98436976D01*
X95697541Y-98436977D01*
X95507364Y-98510651D01*
X95507357Y-98510655D01*
X95333960Y-98618017D01*
X95333958Y-98618019D01*
X95183237Y-98755418D01*
X95060327Y-98918178D01*
X94969422Y-99100739D01*
X94969417Y-99100752D01*
X94913602Y-99296917D01*
X94894785Y-99499999D01*
X94894785Y-99500000D01*
X94913602Y-99703082D01*
X94969417Y-99899247D01*
X94969422Y-99899260D01*
X95060327Y-100081821D01*
X95183237Y-100244581D01*
X95333958Y-100381980D01*
X95333960Y-100381982D01*
X95433141Y-100443392D01*
X95507363Y-100489348D01*
X95606233Y-100527650D01*
X95661635Y-100570223D01*
X95685226Y-100635990D01*
X95669515Y-100704070D01*
X95619491Y-100752849D01*
X95593535Y-100763051D01*
X95553688Y-100773728D01*
X95553673Y-100773734D01*
X95347516Y-100869866D01*
X95347512Y-100869868D01*
X95274526Y-100920973D01*
X95274526Y-100920974D01*
X95953553Y-101600000D01*
X95947339Y-101600000D01*
X95845606Y-101627259D01*
X95754394Y-101679920D01*
X95679920Y-101754394D01*
X95627259Y-101845606D01*
X95600000Y-101947339D01*
X95600000Y-101953552D01*
X94920974Y-101274526D01*
X94920973Y-101274526D01*
X94869868Y-101347512D01*
X94869866Y-101347516D01*
X94773734Y-101553673D01*
X94773730Y-101553682D01*
X94714860Y-101773389D01*
X94714858Y-101773400D01*
X94695034Y-101999997D01*
X85500500Y-101999997D01*
X85500500Y-99682720D01*
X85500500Y-99682708D01*
X85462185Y-99049283D01*
X85385695Y-98419326D01*
X85271308Y-97795138D01*
X85119442Y-97178994D01*
X84930652Y-96573144D01*
X84705625Y-95979798D01*
X84445184Y-95401122D01*
X84150278Y-94839226D01*
X83945209Y-94500000D01*
X95064417Y-94500000D01*
X95084699Y-94705932D01*
X95084700Y-94705934D01*
X95144768Y-94903954D01*
X95242315Y-95086450D01*
X95242317Y-95086452D01*
X95373589Y-95246410D01*
X95470209Y-95325702D01*
X95533550Y-95377685D01*
X95716046Y-95475232D01*
X95914066Y-95535300D01*
X95914065Y-95535300D01*
X95932529Y-95537118D01*
X96120000Y-95555583D01*
X96325934Y-95535300D01*
X96523954Y-95475232D01*
X96706450Y-95377685D01*
X96866410Y-95246410D01*
X96997685Y-95086450D01*
X97095232Y-94903954D01*
X97155300Y-94705934D01*
X97175583Y-94500000D01*
X99944417Y-94500000D01*
X99964699Y-94705932D01*
X99964700Y-94705934D01*
X100024768Y-94903954D01*
X100122315Y-95086450D01*
X100122317Y-95086452D01*
X100253589Y-95246410D01*
X100350209Y-95325702D01*
X100413550Y-95377685D01*
X100596046Y-95475232D01*
X100794066Y-95535300D01*
X100794065Y-95535300D01*
X100812529Y-95537118D01*
X101000000Y-95555583D01*
X101205934Y-95535300D01*
X101403954Y-95475232D01*
X101586450Y-95377685D01*
X101746410Y-95246410D01*
X101877685Y-95086450D01*
X101975232Y-94903954D01*
X102035300Y-94705934D01*
X102055583Y-94500000D01*
X102035300Y-94294066D01*
X101975232Y-94096046D01*
X101877685Y-93913550D01*
X101825702Y-93850209D01*
X101746410Y-93753589D01*
X101586452Y-93622317D01*
X101586453Y-93622317D01*
X101586450Y-93622315D01*
X101403954Y-93524768D01*
X101205934Y-93464700D01*
X101205932Y-93464699D01*
X101205934Y-93464699D01*
X101000000Y-93444417D01*
X100794067Y-93464699D01*
X100596043Y-93524769D01*
X100485898Y-93583643D01*
X100413550Y-93622315D01*
X100413548Y-93622316D01*
X100413547Y-93622317D01*
X100253589Y-93753589D01*
X100122317Y-93913547D01*
X100024769Y-94096043D01*
X99964699Y-94294067D01*
X99944417Y-94500000D01*
X97175583Y-94500000D01*
X97155300Y-94294066D01*
X97095232Y-94096046D01*
X96997685Y-93913550D01*
X96945702Y-93850209D01*
X96866410Y-93753589D01*
X96706452Y-93622317D01*
X96706453Y-93622317D01*
X96706450Y-93622315D01*
X96523954Y-93524768D01*
X96325934Y-93464700D01*
X96325932Y-93464699D01*
X96325934Y-93464699D01*
X96120000Y-93444417D01*
X95914067Y-93464699D01*
X95716043Y-93524769D01*
X95605898Y-93583643D01*
X95533550Y-93622315D01*
X95533548Y-93622316D01*
X95533547Y-93622317D01*
X95373589Y-93753589D01*
X95242317Y-93913547D01*
X95144769Y-94096043D01*
X95084699Y-94294067D01*
X95064417Y-94500000D01*
X83945209Y-94500000D01*
X83821985Y-94296162D01*
X83461500Y-93773910D01*
X83070147Y-93274383D01*
X83070146Y-93274382D01*
X82649343Y-92799394D01*
X82649309Y-92799358D01*
X82200641Y-92350690D01*
X82200605Y-92350656D01*
X81725617Y-91929853D01*
X81725616Y-91929852D01*
X81226088Y-91538498D01*
X80703853Y-91178025D01*
X80703845Y-91178020D01*
X80703838Y-91178015D01*
X80352194Y-90965439D01*
X80160783Y-90849727D01*
X80160777Y-90849724D01*
X80160774Y-90849722D01*
X79598878Y-90554816D01*
X79598876Y-90554815D01*
X79598872Y-90554813D01*
X79020191Y-90294370D01*
X78583085Y-90128598D01*
X78426856Y-90069348D01*
X78426849Y-90069346D01*
X78426847Y-90069345D01*
X77821021Y-89880562D01*
X77821005Y-89880557D01*
X77204867Y-89728693D01*
X77204862Y-89728692D01*
X76580674Y-89614305D01*
X76580666Y-89614304D01*
X75950718Y-89537815D01*
X75317300Y-89499500D01*
X75317292Y-89499500D01*
X75065892Y-89499500D01*
X65065892Y-89499500D01*
X55002706Y-89499500D01*
X54997297Y-89499382D01*
X54613249Y-89482614D01*
X54602473Y-89481671D01*
X54224042Y-89431849D01*
X54213389Y-89429971D01*
X53840727Y-89347354D01*
X53830278Y-89344554D01*
X53466244Y-89229775D01*
X53456078Y-89226075D01*
X53103427Y-89080002D01*
X53093623Y-89075430D01*
X52755057Y-88899183D01*
X52745689Y-88893775D01*
X52423755Y-88688681D01*
X52414894Y-88682476D01*
X52112069Y-88450110D01*
X52103782Y-88443156D01*
X51822364Y-88185284D01*
X51814715Y-88177635D01*
X51556843Y-87896217D01*
X51549889Y-87887930D01*
X51317523Y-87585105D01*
X51311318Y-87576244D01*
X51106224Y-87254310D01*
X51100816Y-87244942D01*
X50924569Y-86906376D01*
X50919997Y-86896572D01*
X50773920Y-86543911D01*
X50770224Y-86533755D01*
X50655442Y-86169710D01*
X50652648Y-86159284D01*
X50570025Y-85786597D01*
X50568152Y-85775971D01*
X50518326Y-85397506D01*
X50517386Y-85386771D01*
X50500618Y-85002702D01*
X50500500Y-84997293D01*
X50500500Y-84752444D01*
X59699500Y-84752444D01*
X59699500Y-86647555D01*
X59705784Y-86738093D01*
X59705786Y-86738109D01*
X59755659Y-86950156D01*
X59755661Y-86950161D01*
X59755662Y-86950164D01*
X59843657Y-87149454D01*
X59944486Y-87296646D01*
X59966773Y-87329181D01*
X59966778Y-87329187D01*
X60120812Y-87483221D01*
X60120818Y-87483226D01*
X60300546Y-87606343D01*
X60499836Y-87694338D01*
X60499841Y-87694339D01*
X60499843Y-87694340D01*
X60711890Y-87744213D01*
X60711895Y-87744213D01*
X60711901Y-87744215D01*
X60762204Y-87747706D01*
X60802444Y-87750500D01*
X60802448Y-87750500D01*
X62697556Y-87750500D01*
X62733770Y-87747986D01*
X62788099Y-87744215D01*
X62788105Y-87744213D01*
X62788109Y-87744213D01*
X63000156Y-87694340D01*
X63000156Y-87694339D01*
X63000164Y-87694338D01*
X63199454Y-87606343D01*
X63379182Y-87483226D01*
X63533226Y-87329182D01*
X63656343Y-87149454D01*
X63744338Y-86950164D01*
X63794215Y-86738099D01*
X63800500Y-86647552D01*
X63800500Y-84752448D01*
X63794215Y-84661901D01*
X63794213Y-84661895D01*
X63794213Y-84661890D01*
X63744340Y-84449843D01*
X63744339Y-84449841D01*
X63744338Y-84449836D01*
X63656343Y-84250546D01*
X63533226Y-84070818D01*
X63533221Y-84070812D01*
X63379187Y-83916778D01*
X63379181Y-83916773D01*
X63346646Y-83894486D01*
X63199454Y-83793657D01*
X63000164Y-83705662D01*
X63000161Y-83705661D01*
X63000156Y-83705659D01*
X62788109Y-83655786D01*
X62788093Y-83655784D01*
X62697556Y-83649500D01*
X62697552Y-83649500D01*
X60802448Y-83649500D01*
X60802444Y-83649500D01*
X60711906Y-83655784D01*
X60711890Y-83655786D01*
X60499843Y-83705659D01*
X60499836Y-83705662D01*
X60300550Y-83793655D01*
X60300549Y-83793655D01*
X60300546Y-83793657D01*
X60224107Y-83846018D01*
X60120818Y-83916773D01*
X60120812Y-83916778D01*
X59966778Y-84070812D01*
X59966773Y-84070818D01*
X59896018Y-84174107D01*
X59843657Y-84250546D01*
X59843655Y-84250549D01*
X59843655Y-84250550D01*
X59755662Y-84449836D01*
X59755659Y-84449843D01*
X59705786Y-84661890D01*
X59705784Y-84661906D01*
X59699500Y-84752444D01*
X50500500Y-84752444D01*
X50500500Y-79935803D01*
X56750000Y-79935803D01*
X56750000Y-80750000D01*
X58250000Y-80750000D01*
X58250000Y-81250000D01*
X56750001Y-81250000D01*
X56750001Y-82064197D01*
X56760400Y-82196332D01*
X56815377Y-82414519D01*
X56908428Y-82619374D01*
X56908431Y-82619380D01*
X57036559Y-82804323D01*
X57036569Y-82804335D01*
X57195664Y-82963430D01*
X57195676Y-82963440D01*
X57380619Y-83091568D01*
X57380625Y-83091571D01*
X57585480Y-83184622D01*
X57803667Y-83239599D01*
X57935810Y-83249999D01*
X58499999Y-83249999D01*
X58500000Y-83249998D01*
X58500000Y-82433012D01*
X58557007Y-82465925D01*
X58684174Y-82500000D01*
X58815826Y-82500000D01*
X58942993Y-82465925D01*
X59000000Y-82433012D01*
X59000000Y-83249999D01*
X59564182Y-83249999D01*
X59564197Y-83249998D01*
X59696332Y-83239599D01*
X59914519Y-83184622D01*
X60119374Y-83091571D01*
X60119380Y-83091568D01*
X60304323Y-82963440D01*
X60304335Y-82963430D01*
X60463430Y-82804335D01*
X60463440Y-82804323D01*
X60591568Y-82619380D01*
X60591571Y-82619374D01*
X60684622Y-82414519D01*
X60739599Y-82196332D01*
X60749999Y-82064196D01*
X60750000Y-82064184D01*
X60750000Y-81250000D01*
X59250000Y-81250000D01*
X59250000Y-80750000D01*
X60749999Y-80750000D01*
X60749999Y-79935817D01*
X60749998Y-79935802D01*
X60739599Y-79803667D01*
X60684622Y-79585480D01*
X60591571Y-79380625D01*
X60591568Y-79380619D01*
X60469990Y-79205131D01*
X62699500Y-79205131D01*
X62699500Y-82794856D01*
X62699502Y-82794882D01*
X62702413Y-82819987D01*
X62702415Y-82819991D01*
X62747793Y-82922764D01*
X62747794Y-82922765D01*
X62827235Y-83002206D01*
X62930009Y-83047585D01*
X62955135Y-83050500D01*
X66544864Y-83050499D01*
X66544879Y-83050497D01*
X66544882Y-83050497D01*
X66569987Y-83047586D01*
X66569988Y-83047585D01*
X66569991Y-83047585D01*
X66672765Y-83002206D01*
X66752206Y-82922765D01*
X66797585Y-82819991D01*
X66800500Y-82794865D01*
X66800499Y-79205136D01*
X66799401Y-79195664D01*
X66797586Y-79180012D01*
X66797585Y-79180010D01*
X66797585Y-79180009D01*
X66752206Y-79077235D01*
X66672765Y-78997794D01*
X66601268Y-78966225D01*
X66569992Y-78952415D01*
X66544865Y-78949500D01*
X62955143Y-78949500D01*
X62955117Y-78949502D01*
X62930012Y-78952413D01*
X62930008Y-78952415D01*
X62827235Y-78997793D01*
X62747794Y-79077234D01*
X62702415Y-79180006D01*
X62702415Y-79180008D01*
X62699500Y-79205131D01*
X60469990Y-79205131D01*
X60463440Y-79195676D01*
X60463430Y-79195664D01*
X60304335Y-79036569D01*
X60304323Y-79036559D01*
X60119380Y-78908431D01*
X60119374Y-78908428D01*
X59914519Y-78815377D01*
X59696332Y-78760400D01*
X59564196Y-78750000D01*
X59000000Y-78750000D01*
X59000000Y-79566988D01*
X58942993Y-79534075D01*
X58815826Y-79500000D01*
X58684174Y-79500000D01*
X58557007Y-79534075D01*
X58500000Y-79566988D01*
X58500000Y-78750000D01*
X57935817Y-78750000D01*
X57935802Y-78750001D01*
X57803667Y-78760400D01*
X57585480Y-78815377D01*
X57380625Y-78908428D01*
X57380619Y-78908431D01*
X57195676Y-79036559D01*
X57195664Y-79036569D01*
X57036569Y-79195664D01*
X57036559Y-79195676D01*
X56908431Y-79380619D01*
X56908428Y-79380625D01*
X56815377Y-79585480D01*
X56760400Y-79803667D01*
X56750000Y-79935803D01*
X50500500Y-79935803D01*
X50500500Y-78424999D01*
X93319722Y-78424999D01*
X93319722Y-78425000D01*
X93338762Y-78581818D01*
X93394780Y-78729523D01*
X93394781Y-78729524D01*
X93460921Y-78825346D01*
X93482804Y-78891701D01*
X93465338Y-78959353D01*
X93460922Y-78966225D01*
X93423797Y-79020010D01*
X93367779Y-79167715D01*
X93348739Y-79324533D01*
X93348739Y-79324534D01*
X93367779Y-79481352D01*
X93414494Y-79604527D01*
X93423797Y-79629057D01*
X93513534Y-79759064D01*
X93631777Y-79863817D01*
X93631779Y-79863818D01*
X93771651Y-79937230D01*
X93925031Y-79975034D01*
X93925032Y-79975034D01*
X94083002Y-79975034D01*
X94236382Y-79937230D01*
X94283121Y-79912699D01*
X94376257Y-79863817D01*
X94441273Y-79806217D01*
X94504507Y-79776497D01*
X94523500Y-79775034D01*
X100208207Y-79775034D01*
X100275246Y-79794719D01*
X100290431Y-79806216D01*
X100327760Y-79839286D01*
X100327762Y-79839287D01*
X100467634Y-79912699D01*
X100621014Y-79950503D01*
X100621015Y-79950503D01*
X100778985Y-79950503D01*
X100932365Y-79912699D01*
X101072240Y-79839286D01*
X101190483Y-79734533D01*
X101280220Y-79604526D01*
X101336237Y-79456821D01*
X101355278Y-79300003D01*
X101339216Y-79167715D01*
X101336237Y-79143184D01*
X101314992Y-79087167D01*
X101280220Y-78995480D01*
X101228423Y-78920439D01*
X101206541Y-78854087D01*
X101224006Y-78786435D01*
X101228412Y-78779579D01*
X101280220Y-78704523D01*
X101336237Y-78556818D01*
X101355278Y-78400000D01*
X101339273Y-78268181D01*
X101336237Y-78243181D01*
X101289701Y-78120477D01*
X101280220Y-78095477D01*
X101190483Y-77965470D01*
X101108471Y-77892814D01*
X101071346Y-77833627D01*
X101072113Y-77763761D01*
X101108471Y-77707185D01*
X101190483Y-77634530D01*
X101280220Y-77504523D01*
X101336237Y-77356818D01*
X101355278Y-77200000D01*
X101336237Y-77043182D01*
X101280220Y-76895477D01*
X101190483Y-76765470D01*
X101072240Y-76660717D01*
X101072238Y-76660716D01*
X101072237Y-76660715D01*
X100932365Y-76587303D01*
X100778986Y-76549500D01*
X100778985Y-76549500D01*
X100621015Y-76549500D01*
X100621014Y-76549500D01*
X100467634Y-76587303D01*
X100327762Y-76660715D01*
X100262744Y-76718316D01*
X100199510Y-76748037D01*
X100180517Y-76749500D01*
X99819483Y-76749500D01*
X99752444Y-76729815D01*
X99737256Y-76718316D01*
X99672240Y-76660717D01*
X99672238Y-76660716D01*
X99672237Y-76660715D01*
X99532365Y-76587303D01*
X99378986Y-76549500D01*
X99378985Y-76549500D01*
X99221015Y-76549500D01*
X99221014Y-76549500D01*
X99067634Y-76587303D01*
X98927762Y-76660715D01*
X98809516Y-76765471D01*
X98719781Y-76895475D01*
X98719780Y-76895476D01*
X98663762Y-77043181D01*
X98644722Y-77199999D01*
X98644722Y-77200000D01*
X98663762Y-77356818D01*
X98719780Y-77504523D01*
X98809517Y-77634530D01*
X98920313Y-77732685D01*
X98957438Y-77791873D01*
X98956671Y-77861739D01*
X98918254Y-77920099D01*
X98854384Y-77948424D01*
X98838085Y-77949500D01*
X94466264Y-77949500D01*
X94399225Y-77929815D01*
X94384038Y-77918316D01*
X94347240Y-77885717D01*
X94347238Y-77885715D01*
X94207365Y-77812303D01*
X94053986Y-77774500D01*
X94053985Y-77774500D01*
X93896015Y-77774500D01*
X93896014Y-77774500D01*
X93742634Y-77812303D01*
X93602762Y-77885715D01*
X93602760Y-77885717D01*
X93512737Y-77965470D01*
X93484516Y-77990471D01*
X93394781Y-78120475D01*
X93394780Y-78120476D01*
X93338762Y-78268181D01*
X93319722Y-78424999D01*
X50500500Y-78424999D01*
X50500500Y-71602155D01*
X55110000Y-71602155D01*
X55110000Y-72250000D01*
X56026988Y-72250000D01*
X55994075Y-72307007D01*
X55960000Y-72434174D01*
X55960000Y-72565826D01*
X55994075Y-72692993D01*
X56026988Y-72750000D01*
X55110000Y-72750000D01*
X55110000Y-73397844D01*
X55116401Y-73457372D01*
X55116403Y-73457379D01*
X55166645Y-73592086D01*
X55166649Y-73592093D01*
X55252809Y-73707187D01*
X55252812Y-73707190D01*
X55367906Y-73793350D01*
X55367913Y-73793354D01*
X55502620Y-73843596D01*
X55502627Y-73843598D01*
X55562155Y-73849999D01*
X55562172Y-73850000D01*
X56210000Y-73850000D01*
X56210000Y-72933012D01*
X56267007Y-72965925D01*
X56394174Y-73000000D01*
X56525826Y-73000000D01*
X56652993Y-72965925D01*
X56710000Y-72933012D01*
X56710000Y-73850000D01*
X57357828Y-73850000D01*
X57357844Y-73849999D01*
X57417377Y-73843597D01*
X57417378Y-73843597D01*
X57471059Y-73823575D01*
X57540750Y-73818589D01*
X57602071Y-73852071D01*
X57750000Y-74000000D01*
X62500000Y-74000000D01*
X63000000Y-73500000D01*
X63000000Y-71500000D01*
X62500000Y-71000000D01*
X57750000Y-71000000D01*
X57676038Y-71073962D01*
X57602075Y-71147924D01*
X57540751Y-71181408D01*
X57471063Y-71176425D01*
X57417378Y-71156403D01*
X57417372Y-71156401D01*
X57357844Y-71150000D01*
X56710000Y-71150000D01*
X56710000Y-72066988D01*
X56652993Y-72034075D01*
X56525826Y-72000000D01*
X56394174Y-72000000D01*
X56267007Y-72034075D01*
X56210000Y-72066988D01*
X56210000Y-71150000D01*
X55562155Y-71150000D01*
X55502627Y-71156401D01*
X55502620Y-71156403D01*
X55367913Y-71206645D01*
X55367906Y-71206649D01*
X55252812Y-71292809D01*
X55252809Y-71292812D01*
X55166649Y-71407906D01*
X55166645Y-71407913D01*
X55116403Y-71542620D01*
X55116401Y-71542627D01*
X55110000Y-71602155D01*
X50500500Y-71602155D01*
X50500500Y-67102155D01*
X55110000Y-67102155D01*
X55110000Y-67750000D01*
X56026988Y-67750000D01*
X55994075Y-67807007D01*
X55960000Y-67934174D01*
X55960000Y-68065826D01*
X55994075Y-68192993D01*
X56026988Y-68250000D01*
X55110000Y-68250000D01*
X55110000Y-68897844D01*
X55116401Y-68957372D01*
X55116403Y-68957379D01*
X55166645Y-69092086D01*
X55166649Y-69092093D01*
X55252809Y-69207187D01*
X55252812Y-69207190D01*
X55367906Y-69293350D01*
X55367913Y-69293354D01*
X55502620Y-69343596D01*
X55502627Y-69343598D01*
X55562155Y-69349999D01*
X55562172Y-69350000D01*
X56210000Y-69350000D01*
X56210000Y-68433012D01*
X56267007Y-68465925D01*
X56394174Y-68500000D01*
X56525826Y-68500000D01*
X56652993Y-68465925D01*
X56710000Y-68433012D01*
X56710000Y-69350000D01*
X57357828Y-69350000D01*
X57357844Y-69349999D01*
X57417377Y-69343597D01*
X57417378Y-69343597D01*
X57471059Y-69323575D01*
X57540750Y-69318589D01*
X57602071Y-69352071D01*
X57750000Y-69500000D01*
X62500000Y-69500000D01*
X63000000Y-69000000D01*
X63000000Y-67000000D01*
X62500000Y-66500000D01*
X57750000Y-66500000D01*
X57676038Y-66573962D01*
X57602075Y-66647924D01*
X57540751Y-66681408D01*
X57471063Y-66676425D01*
X57417378Y-66656403D01*
X57417372Y-66656401D01*
X57357844Y-66650000D01*
X56710000Y-66650000D01*
X56710000Y-67566988D01*
X56652993Y-67534075D01*
X56525826Y-67500000D01*
X56394174Y-67500000D01*
X56267007Y-67534075D01*
X56210000Y-67566988D01*
X56210000Y-66650000D01*
X55562155Y-66650000D01*
X55502627Y-66656401D01*
X55502620Y-66656403D01*
X55367913Y-66706645D01*
X55367906Y-66706649D01*
X55252812Y-66792809D01*
X55252809Y-66792812D01*
X55166649Y-66907906D01*
X55166645Y-66907913D01*
X55116403Y-67042620D01*
X55116401Y-67042627D01*
X55110000Y-67102155D01*
X50500500Y-67102155D01*
X50500500Y-62602155D01*
X55125000Y-62602155D01*
X55125000Y-63250000D01*
X56041988Y-63250000D01*
X56009075Y-63307007D01*
X55975000Y-63434174D01*
X55975000Y-63565826D01*
X56009075Y-63692993D01*
X56041988Y-63750000D01*
X55125000Y-63750000D01*
X55125000Y-64397844D01*
X55131401Y-64457372D01*
X55131403Y-64457379D01*
X55181645Y-64592086D01*
X55181649Y-64592093D01*
X55267809Y-64707187D01*
X55267812Y-64707190D01*
X55382906Y-64793350D01*
X55382913Y-64793354D01*
X55517620Y-64843596D01*
X55517627Y-64843598D01*
X55577155Y-64849999D01*
X55577172Y-64850000D01*
X56225000Y-64850000D01*
X56225000Y-63933012D01*
X56282007Y-63965925D01*
X56409174Y-64000000D01*
X56540826Y-64000000D01*
X56667993Y-63965925D01*
X56725000Y-63933012D01*
X56725000Y-64850000D01*
X57372828Y-64850000D01*
X57372844Y-64849999D01*
X57432372Y-64843598D01*
X57432380Y-64843596D01*
X57475134Y-64827650D01*
X57544826Y-64822665D01*
X57606149Y-64856149D01*
X57750000Y-65000000D01*
X62500000Y-65000000D01*
X63000000Y-64500000D01*
X63000000Y-62500000D01*
X62500000Y-62000000D01*
X57750000Y-62000000D01*
X57606150Y-62143850D01*
X57544827Y-62177334D01*
X57475136Y-62172350D01*
X57432380Y-62156403D01*
X57432372Y-62156401D01*
X57372844Y-62150000D01*
X56725000Y-62150000D01*
X56725000Y-63066988D01*
X56667993Y-63034075D01*
X56540826Y-63000000D01*
X56409174Y-63000000D01*
X56282007Y-63034075D01*
X56225000Y-63066988D01*
X56225000Y-62150000D01*
X55577155Y-62150000D01*
X55517627Y-62156401D01*
X55517620Y-62156403D01*
X55382913Y-62206645D01*
X55382906Y-62206649D01*
X55267812Y-62292809D01*
X55267809Y-62292812D01*
X55181649Y-62407906D01*
X55181645Y-62407913D01*
X55131403Y-62542620D01*
X55131401Y-62542627D01*
X55125000Y-62602155D01*
X50500500Y-62602155D01*
X50500500Y-58102155D01*
X55095000Y-58102155D01*
X55095000Y-58750000D01*
X56011988Y-58750000D01*
X55979075Y-58807007D01*
X55945000Y-58934174D01*
X55945000Y-59065826D01*
X55979075Y-59192993D01*
X56011988Y-59250000D01*
X55095000Y-59250000D01*
X55095000Y-59897844D01*
X55101401Y-59957372D01*
X55101403Y-59957379D01*
X55151645Y-60092086D01*
X55151649Y-60092093D01*
X55237809Y-60207187D01*
X55237812Y-60207190D01*
X55352906Y-60293350D01*
X55352913Y-60293354D01*
X55487620Y-60343596D01*
X55487627Y-60343598D01*
X55547155Y-60349999D01*
X55547172Y-60350000D01*
X56195000Y-60350000D01*
X56195000Y-59433012D01*
X56252007Y-59465925D01*
X56379174Y-59500000D01*
X56510826Y-59500000D01*
X56637993Y-59465925D01*
X56695000Y-59433012D01*
X56695000Y-60350000D01*
X57342828Y-60350000D01*
X57342844Y-60349999D01*
X57402372Y-60343598D01*
X57402380Y-60343596D01*
X57466984Y-60319500D01*
X57536676Y-60314515D01*
X57597999Y-60347999D01*
X57750000Y-60500000D01*
X62500000Y-60500000D01*
X63000000Y-60000000D01*
X63000000Y-58000000D01*
X62500000Y-57500000D01*
X57750000Y-57500000D01*
X57674000Y-57576000D01*
X57597999Y-57652000D01*
X57536675Y-57685484D01*
X57466984Y-57680500D01*
X57402376Y-57656402D01*
X57402372Y-57656401D01*
X57342844Y-57650000D01*
X56695000Y-57650000D01*
X56695000Y-58566988D01*
X56637993Y-58534075D01*
X56510826Y-58500000D01*
X56379174Y-58500000D01*
X56252007Y-58534075D01*
X56195000Y-58566988D01*
X56195000Y-57650000D01*
X55547155Y-57650000D01*
X55487627Y-57656401D01*
X55487620Y-57656403D01*
X55352913Y-57706645D01*
X55352906Y-57706649D01*
X55237812Y-57792809D01*
X55237809Y-57792812D01*
X55151649Y-57907906D01*
X55151645Y-57907913D01*
X55101403Y-58042620D01*
X55101401Y-58042627D01*
X55095000Y-58102155D01*
X50500500Y-58102155D01*
X50500500Y-53602155D01*
X55150000Y-53602155D01*
X55150000Y-54250000D01*
X56066988Y-54250000D01*
X56034075Y-54307007D01*
X56000000Y-54434174D01*
X56000000Y-54565826D01*
X56034075Y-54692993D01*
X56066988Y-54750000D01*
X55150000Y-54750000D01*
X55150000Y-55397844D01*
X55156401Y-55457372D01*
X55156403Y-55457379D01*
X55206645Y-55592086D01*
X55206649Y-55592093D01*
X55292809Y-55707187D01*
X55292812Y-55707190D01*
X55407906Y-55793350D01*
X55407913Y-55793354D01*
X55542620Y-55843596D01*
X55542627Y-55843598D01*
X55602155Y-55849999D01*
X55602172Y-55850000D01*
X56250000Y-55850000D01*
X56250000Y-54933012D01*
X56307007Y-54965925D01*
X56434174Y-55000000D01*
X56565826Y-55000000D01*
X56692993Y-54965925D01*
X56750000Y-54933012D01*
X56750000Y-55850000D01*
X57397828Y-55850000D01*
X57397844Y-55849999D01*
X57457372Y-55843598D01*
X57457375Y-55843597D01*
X57481925Y-55834441D01*
X57551616Y-55829455D01*
X57612940Y-55862940D01*
X57750000Y-56000000D01*
X62500000Y-56000000D01*
X63000000Y-55500000D01*
X63000000Y-53500000D01*
X62500000Y-53000000D01*
X57750000Y-53000000D01*
X57681471Y-53068529D01*
X57612941Y-53137058D01*
X57551617Y-53170542D01*
X57481929Y-53165559D01*
X57457379Y-53156403D01*
X57457372Y-53156401D01*
X57397844Y-53150000D01*
X56750000Y-53150000D01*
X56750000Y-54066988D01*
X56692993Y-54034075D01*
X56565826Y-54000000D01*
X56434174Y-54000000D01*
X56307007Y-54034075D01*
X56250000Y-54066988D01*
X56250000Y-53150000D01*
X55602155Y-53150000D01*
X55542627Y-53156401D01*
X55542620Y-53156403D01*
X55407913Y-53206645D01*
X55407906Y-53206649D01*
X55292812Y-53292809D01*
X55292809Y-53292812D01*
X55206649Y-53407906D01*
X55206645Y-53407913D01*
X55156403Y-53542620D01*
X55156401Y-53542627D01*
X55150000Y-53602155D01*
X50500500Y-53602155D01*
X50500500Y-50002706D01*
X50500618Y-49997297D01*
X50508926Y-49807007D01*
X50517386Y-49613226D01*
X50518326Y-49602495D01*
X50568152Y-49224025D01*
X50570025Y-49213405D01*
X50594688Y-49102155D01*
X55125000Y-49102155D01*
X55125000Y-49750000D01*
X56041988Y-49750000D01*
X56009075Y-49807007D01*
X55975000Y-49934174D01*
X55975000Y-50065826D01*
X56009075Y-50192993D01*
X56041988Y-50250000D01*
X55125000Y-50250000D01*
X55125000Y-50897844D01*
X55131401Y-50957372D01*
X55131403Y-50957379D01*
X55181645Y-51092086D01*
X55181649Y-51092093D01*
X55267809Y-51207187D01*
X55267812Y-51207190D01*
X55382906Y-51293350D01*
X55382913Y-51293354D01*
X55517620Y-51343596D01*
X55517627Y-51343598D01*
X55577155Y-51349999D01*
X55577172Y-51350000D01*
X56225000Y-51350000D01*
X56225000Y-50433012D01*
X56282007Y-50465925D01*
X56409174Y-50500000D01*
X56540826Y-50500000D01*
X56667993Y-50465925D01*
X56725000Y-50433012D01*
X56725000Y-51350000D01*
X57372828Y-51350000D01*
X57372844Y-51349999D01*
X57432372Y-51343598D01*
X57432380Y-51343596D01*
X57475134Y-51327650D01*
X57544826Y-51322665D01*
X57606149Y-51356149D01*
X57750000Y-51500000D01*
X62500000Y-51500000D01*
X63000000Y-51000000D01*
X63000000Y-49000000D01*
X62500000Y-48500000D01*
X57750000Y-48500000D01*
X57606150Y-48643850D01*
X57544827Y-48677334D01*
X57475136Y-48672350D01*
X57432380Y-48656403D01*
X57432372Y-48656401D01*
X57372844Y-48650000D01*
X56725000Y-48650000D01*
X56725000Y-49566988D01*
X56667993Y-49534075D01*
X56540826Y-49500000D01*
X56409174Y-49500000D01*
X56282007Y-49534075D01*
X56225000Y-49566988D01*
X56225000Y-48650000D01*
X55577155Y-48650000D01*
X55517627Y-48656401D01*
X55517620Y-48656403D01*
X55382913Y-48706645D01*
X55382906Y-48706649D01*
X55267812Y-48792809D01*
X55267809Y-48792812D01*
X55181649Y-48907906D01*
X55181645Y-48907913D01*
X55131403Y-49042620D01*
X55131401Y-49042627D01*
X55125000Y-49102155D01*
X50594688Y-49102155D01*
X50652649Y-48840709D01*
X50655440Y-48830295D01*
X50770230Y-48466227D01*
X50773917Y-48456095D01*
X50920003Y-48103412D01*
X50924561Y-48093638D01*
X51100822Y-47755045D01*
X51106217Y-47745700D01*
X51311325Y-47423744D01*
X51317515Y-47414905D01*
X51549896Y-47112060D01*
X51556834Y-47103791D01*
X51814726Y-46822352D01*
X51822352Y-46814726D01*
X52103791Y-46556834D01*
X52112060Y-46549896D01*
X52414905Y-46317515D01*
X52423744Y-46311325D01*
X52745700Y-46106217D01*
X52755045Y-46100822D01*
X53093638Y-45924561D01*
X53103412Y-45920003D01*
X53456095Y-45773917D01*
X53466227Y-45770230D01*
X53830295Y-45655440D01*
X53840709Y-45652649D01*
X54213405Y-45570025D01*
X54224025Y-45568152D01*
X54602495Y-45518326D01*
X54613226Y-45517386D01*
X54997297Y-45500617D01*
X55002706Y-45500500D01*
X55065892Y-45500500D01*
X63435553Y-45500500D01*
X63502592Y-45520185D01*
G37*
%TD.AperFunction*%
%TD*%
M02*
