M48
; DRILL file {KiCad 8.0.6} date 2025-01-24T14:08:03+1100
; FORMAT={-:-/ absolute / metric / decimal}
; #@! TF.CreationDate,2025-01-24T14:08:03+11:00
; #@! TF.GenerationSoftware,Kicad,Pcbnew,8.0.6
; #@! TF.FileFunction,MixedPlating,1,2
FMAT,2
METRIC
; #@! TA.AperFunction,Plated,PTH,ViaDrill
T1C0.300
; #@! TA.AperFunction,Plated,PTH,ComponentDrill
T2C0.800
; #@! TA.AperFunction,Plated,PTH,ComponentDrill
T3C1.000
; #@! TA.AperFunction,Plated,PTH,ComponentDrill
T4C1.100
; #@! TA.AperFunction,NonPlated,NPTH,ComponentDrill
T5C3.200
%
G90
G05
T1
X56.0Y-81.0
X56.6Y-78.8
X56.6Y-83.2
X62.0Y-47.3
X67.8Y-76.2
X69.0Y-74.8
X74.75Y-86.5
X75.75Y-56.0
X75.75Y-59.0
X75.75Y-63.5
X75.75Y-68.0
X75.75Y-72.5
X80.0Y-74.2
X81.6Y-88.9
X87.0Y-74.2
X93.975Y-78.425
X94.004Y-79.325
X95.0Y-75.4
X99.3Y-77.2
X100.7Y-77.2
X100.7Y-78.4
X100.7Y-79.3
T2
X96.0Y-99.5
X96.0Y-102.0
X96.12Y-94.5
X101.0Y-94.5
X101.0Y-99.5
X101.0Y-102.0
T3
X56.445Y-59.0
X56.46Y-68.0
X56.46Y-72.5
X56.475Y-50.0
X56.475Y-63.5
X56.5Y-54.5
X58.985Y-59.0
X59.0Y-68.0
X59.0Y-72.5
X59.015Y-50.0
X59.015Y-63.5
X59.04Y-54.5
X61.525Y-59.0
X61.54Y-68.0
X61.54Y-72.5
X61.555Y-50.0
X61.555Y-63.5
X61.58Y-54.5
X100.0Y-114.92
X100.0Y-117.46
X100.0Y-120.0
X105.0Y-114.92
X105.0Y-117.46
X105.0Y-120.0
X110.0Y-114.96
X110.0Y-117.5
X110.0Y-120.04
X115.0Y-114.945
X115.0Y-117.485
X115.0Y-120.025
T4
X89.75Y-113.75
X89.75Y-120.25
X94.25Y-113.75
X94.25Y-120.25
T5
X75.0Y-50.0
X125.0Y-100.0
T3
G00X58.75Y-80.0
M15
G01X58.75Y-82.0
M16
G05
G00X60.75Y-85.7
M15
G01X62.75Y-85.7
M16
G05
G00X64.75Y-80.0
M15
G01X64.75Y-82.0
M16
G05
M30
