%TF.GenerationSoftware,KiCad,Pcbnew,8.0.6*%
%TF.CreationDate,2025-01-24T14:08:04+11:00*%
%TF.ProjectId,STM32F070F6P6-Robot-Arm-2,53544d33-3246-4303-9730-463650362d52,rev?*%
%TF.SameCoordinates,Original*%
%TF.FileFunction,Copper,L1,Top*%
%TF.FilePolarity,Positive*%
%FSLAX46Y46*%
G04 Gerber Fmt 4.6, Leading zero omitted, Abs format (unit mm)*
G04 Created by KiCad (PCBNEW 8.0.6) date 2025-01-24 14:08:04*
%MOMM*%
%LPD*%
G01*
G04 APERTURE LIST*
G04 Aperture macros list*
%AMRoundRect*
0 Rectangle with rounded corners*
0 $1 Rounding radius*
0 $2 $3 $4 $5 $6 $7 $8 $9 X,Y pos of 4 corners*
0 Add a 4 corners polygon primitive as box body*
4,1,4,$2,$3,$4,$5,$6,$7,$8,$9,$2,$3,0*
0 Add four circle primitives for the rounded corners*
1,1,$1+$1,$2,$3*
1,1,$1+$1,$4,$5*
1,1,$1+$1,$6,$7*
1,1,$1+$1,$8,$9*
0 Add four rect primitives between the rounded corners*
20,1,$1+$1,$2,$3,$4,$5,0*
20,1,$1+$1,$4,$5,$6,$7,0*
20,1,$1+$1,$6,$7,$8,$9,0*
20,1,$1+$1,$8,$9,$2,$3,0*%
G04 Aperture macros list end*
%TA.AperFunction,SMDPad,CuDef*%
%ADD10RoundRect,0.250001X0.462499X0.624999X-0.462499X0.624999X-0.462499X-0.624999X0.462499X-0.624999X0*%
%TD*%
%TA.AperFunction,ComponentPad*%
%ADD11R,1.700000X1.700000*%
%TD*%
%TA.AperFunction,ComponentPad*%
%ADD12O,1.700000X1.700000*%
%TD*%
%TA.AperFunction,ComponentPad*%
%ADD13R,3.500000X3.500000*%
%TD*%
%TA.AperFunction,ComponentPad*%
%ADD14RoundRect,0.750000X-0.750000X-1.000000X0.750000X-1.000000X0.750000X1.000000X-0.750000X1.000000X0*%
%TD*%
%TA.AperFunction,ComponentPad*%
%ADD15RoundRect,0.875000X-0.875000X-0.875000X0.875000X-0.875000X0.875000X0.875000X-0.875000X0.875000X0*%
%TD*%
%TA.AperFunction,SMDPad,CuDef*%
%ADD16RoundRect,0.250000X0.400000X0.625000X-0.400000X0.625000X-0.400000X-0.625000X0.400000X-0.625000X0*%
%TD*%
%TA.AperFunction,ComponentPad*%
%ADD17C,1.500000*%
%TD*%
%TA.AperFunction,SMDPad,CuDef*%
%ADD18RoundRect,0.250000X-0.625000X0.400000X-0.625000X-0.400000X0.625000X-0.400000X0.625000X0.400000X0*%
%TD*%
%TA.AperFunction,SMDPad,CuDef*%
%ADD19RoundRect,0.250000X0.650000X-0.412500X0.650000X0.412500X-0.650000X0.412500X-0.650000X-0.412500X0*%
%TD*%
%TA.AperFunction,SMDPad,CuDef*%
%ADD20RoundRect,0.250000X-0.400000X-0.625000X0.400000X-0.625000X0.400000X0.625000X-0.400000X0.625000X0*%
%TD*%
%TA.AperFunction,SMDPad,CuDef*%
%ADD21RoundRect,0.250001X0.624999X-0.462499X0.624999X0.462499X-0.624999X0.462499X-0.624999X-0.462499X0*%
%TD*%
%TA.AperFunction,ComponentPad*%
%ADD22C,1.600000*%
%TD*%
%TA.AperFunction,ComponentPad*%
%ADD23C,2.000000*%
%TD*%
%TA.AperFunction,SMDPad,CuDef*%
%ADD24RoundRect,0.375000X-0.625000X-0.375000X0.625000X-0.375000X0.625000X0.375000X-0.625000X0.375000X0*%
%TD*%
%TA.AperFunction,SMDPad,CuDef*%
%ADD25RoundRect,0.500000X-0.500000X-1.400000X0.500000X-1.400000X0.500000X1.400000X-0.500000X1.400000X0*%
%TD*%
%TA.AperFunction,SMDPad,CuDef*%
%ADD26RoundRect,0.250000X-0.412500X-0.650000X0.412500X-0.650000X0.412500X0.650000X-0.412500X0.650000X0*%
%TD*%
%TA.AperFunction,SMDPad,CuDef*%
%ADD27RoundRect,0.100000X0.100000X-0.637500X0.100000X0.637500X-0.100000X0.637500X-0.100000X-0.637500X0*%
%TD*%
%TA.AperFunction,ViaPad*%
%ADD28C,0.700000*%
%TD*%
%TA.AperFunction,Conductor*%
%ADD29C,0.300000*%
%TD*%
%TA.AperFunction,Conductor*%
%ADD30C,1.000000*%
%TD*%
%TA.AperFunction,Conductor*%
%ADD31C,0.500000*%
%TD*%
%TA.AperFunction,Conductor*%
%ADD32C,0.200000*%
%TD*%
%TA.AperFunction,Conductor*%
%ADD33C,2.000000*%
%TD*%
G04 APERTURE END LIST*
D10*
%TO.P,T3C4_LED1,1,K*%
%TO.N,Net-(T3C4_LED1-K)*%
X68000000Y-63500000D03*
%TO.P,T3C4_LED1,2,A*%
%TO.N,/TIM3_CH4*%
X65025000Y-63500000D03*
%TD*%
D11*
%TO.P,TIM3_CH1,1,Pin_1*%
%TO.N,GND*%
X56500000Y-54500000D03*
D12*
%TO.P,TIM3_CH1,2,Pin_2*%
%TO.N,VBUS*%
X59040000Y-54500000D03*
%TO.P,TIM3_CH1,3,Pin_3*%
%TO.N,/TIM3_CH1*%
X61580000Y-54500000D03*
%TD*%
D13*
%TO.P,J10,1*%
%TO.N,VBUS*%
X64750000Y-81000000D03*
D14*
%TO.P,J10,2*%
%TO.N,GND*%
X58750000Y-81000000D03*
D15*
%TO.P,J10,3*%
%TO.N,unconnected-(J10-Pad3)*%
X61750000Y-85700000D03*
%TD*%
D16*
%TO.P,R1_1k6,1*%
%TO.N,GND*%
X73600000Y-72500000D03*
%TO.P,R1_1k6,2*%
%TO.N,Net-(T1C3_LED1-K)*%
X70500000Y-72500000D03*
%TD*%
D10*
%TO.P,T3C1_LED1,1,K*%
%TO.N,Net-(T3C1_LED1-K)*%
X67987500Y-54500000D03*
%TO.P,T3C1_LED1,2,A*%
%TO.N,/TIM3_CH1*%
X65012500Y-54500000D03*
%TD*%
D16*
%TO.P,R1_1k4,1*%
%TO.N,GND*%
X73600000Y-59000000D03*
%TO.P,R1_1k4,2*%
%TO.N,Net-(T3C2_LED1-K)*%
X70500000Y-59000000D03*
%TD*%
D17*
%TO.P,Y1,1,1*%
%TO.N,/HSE_OUT*%
X101000000Y-94500000D03*
%TO.P,Y1,2,2*%
%TO.N,/HSE_IN*%
X96120000Y-94500000D03*
%TD*%
D11*
%TO.P,TIM1_CH3,1,Pin_1*%
%TO.N,GND*%
X56460000Y-72500000D03*
D12*
%TO.P,TIM1_CH3,2,Pin_2*%
%TO.N,VBUS*%
X59000000Y-72500000D03*
%TO.P,TIM1_CH3,3,Pin_3*%
%TO.N,/TIM1_CH3*%
X61540000Y-72500000D03*
%TD*%
D11*
%TO.P,J7,1,Pin_1*%
%TO.N,+3V3*%
X100000000Y-114920000D03*
D12*
%TO.P,J7,2,Pin_2*%
%TO.N,/BOOT0*%
X100000000Y-117460000D03*
%TO.P,J7,3,Pin_3*%
%TO.N,GND*%
X100000000Y-120000000D03*
%TD*%
D18*
%TO.P,R1_1k1,1*%
%TO.N,/LED-*%
X83500000Y-85750000D03*
%TO.P,R1_1k1,2*%
%TO.N,GND*%
X83500000Y-88850000D03*
%TD*%
D10*
%TO.P,T1C3_LED1,1,K*%
%TO.N,Net-(T1C3_LED1-K)*%
X68000000Y-72500000D03*
%TO.P,T1C3_LED1,2,A*%
%TO.N,/TIM1_CH3*%
X65025000Y-72500000D03*
%TD*%
D19*
%TO.P,C1_100n1,1*%
%TO.N,+3V3*%
X87000000Y-79000000D03*
%TO.P,C1_100n1,2*%
%TO.N,GND*%
X87000000Y-75875000D03*
%TD*%
D20*
%TO.P,R1_1k2,1*%
%TO.N,GND*%
X65000000Y-47250000D03*
%TO.P,R1_1k2,2*%
%TO.N,Net-(T14C1_LED1-K)*%
X68100000Y-47250000D03*
%TD*%
%TO.P,R2_1k1,1*%
%TO.N,+3V3*%
X86900000Y-84500000D03*
%TO.P,R2_1k1,2*%
%TO.N,/NRST*%
X90000000Y-84500000D03*
%TD*%
D11*
%TO.P,TIM1_CH2,1,Pin_1*%
%TO.N,GND*%
X56460000Y-68000000D03*
D12*
%TO.P,TIM1_CH2,2,Pin_2*%
%TO.N,VBUS*%
X59000000Y-68000000D03*
%TO.P,TIM1_CH2,3,Pin_3*%
%TO.N,/TIM1_CH2*%
X61540000Y-68000000D03*
%TD*%
D11*
%TO.P,J6,1,Pin_1*%
%TO.N,GND*%
X110000000Y-120040000D03*
D12*
%TO.P,J6,2,Pin_2*%
%TO.N,/RX*%
X110000000Y-117500000D03*
%TO.P,J6,3,Pin_3*%
%TO.N,/TX*%
X110000000Y-114960000D03*
%TD*%
D21*
%TO.P,PWR_LED1,1,K*%
%TO.N,/LED-*%
X83500000Y-82225000D03*
%TO.P,PWR_LED1,2,A*%
%TO.N,+3V3*%
X83500000Y-79250000D03*
%TD*%
D16*
%TO.P,R1_1k7,1*%
%TO.N,GND*%
X73600000Y-63500000D03*
%TO.P,R1_1k7,2*%
%TO.N,Net-(T3C4_LED1-K)*%
X70500000Y-63500000D03*
%TD*%
D22*
%TO.P,C4_10p1,1*%
%TO.N,/HSE_IN*%
X96000000Y-99500000D03*
%TO.P,C4_10p1,2*%
%TO.N,GND*%
X96000000Y-102000000D03*
%TD*%
D23*
%TO.P,RESET1,1,C*%
%TO.N,GND*%
X89750000Y-120250000D03*
X89750000Y-113750000D03*
%TO.P,RESET1,2,D*%
%TO.N,/NRST*%
X94250000Y-120250000D03*
X94250000Y-113750000D03*
%TD*%
D24*
%TO.P,U2_AMS1117-3.3,1,GND*%
%TO.N,GND*%
X69850000Y-76700000D03*
%TO.P,U2_AMS1117-3.3,2,VO*%
%TO.N,+3V3*%
X69850000Y-79000000D03*
D25*
X76150000Y-79000000D03*
D24*
%TO.P,U2_AMS1117-3.3,3,VI*%
%TO.N,VBUS*%
X69850000Y-81300000D03*
%TD*%
D22*
%TO.P,C5_10p1,1*%
%TO.N,/HSE_OUT*%
X101000000Y-99500000D03*
%TO.P,C5_10p1,2*%
%TO.N,GND*%
X101000000Y-102000000D03*
%TD*%
D11*
%TO.P,TIM14_CH1,1,Pin_1*%
%TO.N,GND*%
X56475000Y-50000000D03*
D12*
%TO.P,TIM14_CH1,2,Pin_2*%
%TO.N,VBUS*%
X59015000Y-50000000D03*
%TO.P,TIM14_CH1,3,Pin_3*%
%TO.N,/TIM14_CH1*%
X61555000Y-50000000D03*
%TD*%
D11*
%TO.P,TIM3_CH2,1,Pin_1*%
%TO.N,GND*%
X56445000Y-59000000D03*
D12*
%TO.P,TIM3_CH2,2,Pin_2*%
%TO.N,VBUS*%
X58985000Y-59000000D03*
%TO.P,TIM3_CH2,3,Pin_3*%
%TO.N,/TIM3_CH2*%
X61525000Y-59000000D03*
%TD*%
D11*
%TO.P,TIM3_CH4,1,Pin_1*%
%TO.N,GND*%
X56475000Y-63500000D03*
D12*
%TO.P,TIM3_CH4,2,Pin_2*%
%TO.N,VBUS*%
X59015000Y-63500000D03*
%TO.P,TIM3_CH4,3,Pin_3*%
%TO.N,/TIM3_CH4*%
X61555000Y-63500000D03*
%TD*%
D16*
%TO.P,R1_1k3,1*%
%TO.N,GND*%
X73550000Y-56000000D03*
%TO.P,R1_1k3,2*%
%TO.N,Net-(T3C1_LED1-K)*%
X70450000Y-56000000D03*
%TD*%
D10*
%TO.P,T3C2_LED1,1,K*%
%TO.N,Net-(T3C2_LED1-K)*%
X68000000Y-59000000D03*
%TO.P,T3C2_LED1,2,A*%
%TO.N,/TIM3_CH2*%
X65025000Y-59000000D03*
%TD*%
D19*
%TO.P,C3_22u1,1*%
%TO.N,+3V3*%
X80000000Y-79000000D03*
%TO.P,C3_22u1,2*%
%TO.N,GND*%
X80000000Y-75875000D03*
%TD*%
D16*
%TO.P,R1_1k5,1*%
%TO.N,GND*%
X73600000Y-68000000D03*
%TO.P,R1_1k5,2*%
%TO.N,Net-(T1C2_LED1-K)*%
X70500000Y-68000000D03*
%TD*%
D10*
%TO.P,T1C2_LED1,1,K*%
%TO.N,Net-(T1C2_LED1-K)*%
X68000000Y-68000000D03*
%TO.P,T1C2_LED1,2,A*%
%TO.N,/TIM1_CH2*%
X65025000Y-68000000D03*
%TD*%
D11*
%TO.P,J8,1,Pin_1*%
%TO.N,GND*%
X115000000Y-120025000D03*
D12*
%TO.P,J8,2,Pin_2*%
%TO.N,/SWCLK*%
X115000000Y-117485000D03*
%TO.P,J8,3,Pin_3*%
%TO.N,/SWDIO*%
X115000000Y-114945000D03*
%TD*%
D26*
%TO.P,C2_22u1,1*%
%TO.N,VBUS*%
X69937500Y-86500000D03*
%TO.P,C2_22u1,2*%
%TO.N,GND*%
X73062500Y-86500000D03*
%TD*%
D11*
%TO.P,J9,1,Pin_1*%
%TO.N,/PA5*%
X105000000Y-120000000D03*
D12*
%TO.P,J9,2,Pin_2*%
%TO.N,/PA1*%
X105000000Y-117460000D03*
%TO.P,J9,3,Pin_3*%
%TO.N,/PA0*%
X105000000Y-114920000D03*
%TD*%
D10*
%TO.P,T14C1_LED1,1,K*%
%TO.N,Net-(T14C1_LED1-K)*%
X68000000Y-50000000D03*
%TO.P,T14C1_LED1,2,A*%
%TO.N,/TIM14_CH1*%
X65025000Y-50000000D03*
%TD*%
D27*
%TO.P,U1,1,BOOT0*%
%TO.N,/BOOT0*%
X92075000Y-82862500D03*
%TO.P,U1,2,PF0*%
%TO.N,/HSE_IN*%
X92725000Y-82862500D03*
%TO.P,U1,3,PF1*%
%TO.N,/HSE_OUT*%
X93375000Y-82862500D03*
%TO.P,U1,4,NRST*%
%TO.N,/NRST*%
X94025000Y-82862500D03*
%TO.P,U1,5,VDDA*%
%TO.N,+3V3*%
X94675000Y-82862500D03*
%TO.P,U1,6,PA0*%
%TO.N,/PA0*%
X95325000Y-82862500D03*
%TO.P,U1,7,PA1*%
%TO.N,/PA1*%
X95975000Y-82862500D03*
%TO.P,U1,8,PA2*%
%TO.N,/TX*%
X96625000Y-82862500D03*
%TO.P,U1,9,PA3*%
%TO.N,/RX*%
X97275000Y-82862500D03*
%TO.P,U1,10,PA4*%
%TO.N,/TIM14_CH1*%
X97925000Y-82862500D03*
%TO.P,U1,11,PA5*%
%TO.N,/PA5*%
X97925000Y-77137500D03*
%TO.P,U1,12,PA6*%
%TO.N,/TIM3_CH1*%
X97275000Y-77137500D03*
%TO.P,U1,13,PA7*%
%TO.N,/TIM3_CH2*%
X96625000Y-77137500D03*
%TO.P,U1,14,PB1*%
%TO.N,/TIM3_CH4*%
X95975000Y-77137500D03*
%TO.P,U1,15,VSS*%
%TO.N,GND*%
X95325000Y-77137500D03*
%TO.P,U1,16,VDD*%
%TO.N,+3V3*%
X94675000Y-77137500D03*
%TO.P,U1,17,PA9/PA11*%
%TO.N,/TIM1_CH2*%
X94025000Y-77137500D03*
%TO.P,U1,18,PA10/PA12*%
%TO.N,/TIM1_CH3*%
X93375000Y-77137500D03*
%TO.P,U1,19,PA13*%
%TO.N,/SWDIO*%
X92725000Y-77137500D03*
%TO.P,U1,20,PA14*%
%TO.N,/SWCLK*%
X92075000Y-77137500D03*
%TD*%
D28*
%TO.N,GND*%
X74750000Y-86500000D03*
X75750000Y-63500000D03*
X75750000Y-72500000D03*
X80000000Y-74200000D03*
X56600000Y-78800000D03*
X95000000Y-75400000D03*
X87000000Y-74200000D03*
X75750000Y-56000000D03*
X75750000Y-59000000D03*
X56600000Y-83200000D03*
X56000000Y-81000000D03*
X62000000Y-47300000D03*
X67800000Y-76200000D03*
X75750000Y-68000000D03*
X81600000Y-88900000D03*
X69000000Y-74800000D03*
%TO.N,/SWCLK*%
X94004017Y-79324534D03*
X100700000Y-79300003D03*
%TO.N,/SWDIO*%
X93975000Y-78425000D03*
X100700000Y-78400000D03*
%TO.N,/PA5*%
X100700000Y-77200000D03*
X99300000Y-77200000D03*
%TD*%
D29*
%TO.N,/TIM14_CH1*%
X98787500Y-82000000D02*
X97925000Y-82862500D01*
X100000000Y-74250000D02*
X100000000Y-82000000D01*
X81000000Y-55250000D02*
X100000000Y-74250000D01*
X75000000Y-55250000D02*
X81000000Y-55250000D01*
X100000000Y-82000000D02*
X98787500Y-82000000D01*
X71300000Y-54500000D02*
X74250000Y-54500000D01*
X74250000Y-54500000D02*
X75000000Y-55250000D01*
X69000000Y-52200000D02*
X71300000Y-54500000D01*
X65750000Y-52200000D02*
X69000000Y-52200000D01*
%TO.N,Net-(T3C4_LED1-K)*%
X68000000Y-63500000D02*
X70500000Y-63500000D01*
D30*
%TO.N,GND*%
X81650000Y-88850000D02*
X81600000Y-88900000D01*
D29*
X95325000Y-77137500D02*
X95325000Y-75725000D01*
X65000000Y-47250000D02*
X62050000Y-47250000D01*
D30*
X73062500Y-86500000D02*
X74750000Y-86500000D01*
D29*
X73600000Y-72500000D02*
X75750000Y-72500000D01*
D30*
X87000000Y-75875000D02*
X87000000Y-74200000D01*
D29*
X73600000Y-59000000D02*
X75750000Y-59000000D01*
X95325000Y-75725000D02*
X95000000Y-75400000D01*
X73550000Y-56000000D02*
X75750000Y-56000000D01*
D30*
X83500000Y-88850000D02*
X81650000Y-88850000D01*
D29*
X62050000Y-47250000D02*
X62000000Y-47300000D01*
X73600000Y-68000000D02*
X75750000Y-68000000D01*
X73600000Y-63500000D02*
X75750000Y-63500000D01*
D30*
X80000000Y-75875000D02*
X80000000Y-74200000D01*
D29*
%TO.N,+3V3*%
X94675000Y-77137500D02*
X94704017Y-77166517D01*
X98580000Y-114920000D02*
X97500000Y-116000000D01*
X94404017Y-80250000D02*
X94704017Y-79950000D01*
X95750000Y-123000000D02*
X89000000Y-123000000D01*
X90900000Y-80250000D02*
X89650000Y-79000000D01*
D31*
X86900000Y-84500000D02*
X86900000Y-79100000D01*
D30*
X76150000Y-79000000D02*
X80000000Y-79000000D01*
D29*
X94704017Y-82833483D02*
X94675000Y-82862500D01*
X94400000Y-80250000D02*
X90900000Y-80250000D01*
X94704017Y-80550000D02*
X94704017Y-82833483D01*
D32*
X87000000Y-83950000D02*
X86450000Y-84500000D01*
D29*
X94404017Y-80250000D02*
X94704017Y-80550000D01*
D31*
X86900000Y-79100000D02*
X87000000Y-79000000D01*
D29*
X94704017Y-79950000D02*
X94704017Y-80250000D01*
X89000000Y-123000000D02*
X86900000Y-120900000D01*
X97500000Y-121250000D02*
X95750000Y-123000000D01*
X94704017Y-77166517D02*
X94704017Y-79950000D01*
X94400000Y-80250000D02*
X94404017Y-80250000D01*
X89650000Y-79000000D02*
X87000000Y-79000000D01*
D30*
X69850000Y-79000000D02*
X76150000Y-79000000D01*
D29*
X86900000Y-120900000D02*
X86900000Y-84500000D01*
X100000000Y-114920000D02*
X98580000Y-114920000D01*
X94704017Y-80250000D02*
X94704017Y-80550000D01*
X97500000Y-116000000D02*
X97500000Y-121250000D01*
X94704017Y-80250000D02*
X94400000Y-80250000D01*
D33*
%TO.N,VBUS*%
X53000000Y-70400000D02*
X53000000Y-74000000D01*
D30*
X58900000Y-65800000D02*
X59000000Y-65900000D01*
D33*
X59000000Y-72500000D02*
X59000000Y-70300000D01*
X59040000Y-52250000D02*
X59040000Y-50025000D01*
D30*
X53000000Y-65800000D02*
X58900000Y-65800000D01*
D33*
X53000000Y-56800000D02*
X53000000Y-61300000D01*
X59015000Y-48440000D02*
X57775000Y-47200000D01*
X59015000Y-59030000D02*
X58985000Y-59000000D01*
X59000000Y-75250000D02*
X59000000Y-72500000D01*
X59015000Y-63500000D02*
X59015000Y-61500000D01*
X53000000Y-49000000D02*
X53000000Y-52200000D01*
X59040000Y-58945000D02*
X58985000Y-59000000D01*
X54800000Y-47200000D02*
X53000000Y-49000000D01*
X53000000Y-61300000D02*
X53000000Y-65800000D01*
D30*
X59040000Y-52250000D02*
X53050000Y-52250000D01*
X53000000Y-61300000D02*
X58815000Y-61300000D01*
X58900000Y-70400000D02*
X59000000Y-70300000D01*
D33*
X53000000Y-52200000D02*
X53000000Y-56800000D01*
X58985000Y-54555000D02*
X59040000Y-54500000D01*
D30*
X53050000Y-52250000D02*
X53000000Y-52200000D01*
D33*
X59015000Y-61500000D02*
X59015000Y-59030000D01*
X59040000Y-56750000D02*
X59040000Y-58945000D01*
D30*
X53000000Y-70400000D02*
X58900000Y-70400000D01*
D33*
X59000000Y-68000000D02*
X59000000Y-65900000D01*
X59000000Y-65900000D02*
X59000000Y-63515000D01*
X57775000Y-47200000D02*
X54800000Y-47200000D01*
X59040000Y-54500000D02*
X59040000Y-56750000D01*
X59040000Y-50025000D02*
X59015000Y-50000000D01*
X59000000Y-70300000D02*
X59000000Y-68000000D01*
D30*
X53050000Y-56750000D02*
X53000000Y-56800000D01*
D33*
X59015000Y-50000000D02*
X59015000Y-48440000D01*
X59000000Y-63515000D02*
X59015000Y-63500000D01*
X53000000Y-74000000D02*
X54250000Y-75250000D01*
X54250000Y-75250000D02*
X59000000Y-75250000D01*
X53000000Y-65800000D02*
X53000000Y-70400000D01*
D30*
X59040000Y-56750000D02*
X53050000Y-56750000D01*
X58815000Y-61300000D02*
X59015000Y-61500000D01*
D33*
X59040000Y-54500000D02*
X59040000Y-52250000D01*
D29*
%TO.N,/TIM1_CH3*%
X65025000Y-70975000D02*
X65500000Y-70500000D01*
X93375000Y-75625000D02*
X88250000Y-70500000D01*
X65025000Y-72500000D02*
X65025000Y-70975000D01*
X63540000Y-70500000D02*
X61540000Y-72500000D01*
X65500000Y-70500000D02*
X63540000Y-70500000D01*
X88250000Y-70500000D02*
X65500000Y-70500000D01*
X93375000Y-77137500D02*
X93375000Y-75625000D01*
%TO.N,/TIM3_CH2*%
X61525000Y-59000000D02*
X63525000Y-61000000D01*
X65025000Y-60275000D02*
X65750000Y-61000000D01*
X65025000Y-59000000D02*
X65025000Y-60275000D01*
X65750000Y-61000000D02*
X83500000Y-61000000D01*
X96625000Y-74125000D02*
X96625000Y-77137500D01*
X63525000Y-61000000D02*
X65750000Y-61000000D01*
X83500000Y-61000000D02*
X96625000Y-74125000D01*
%TO.N,/TIM3_CH1*%
X65012500Y-56012500D02*
X66500000Y-57500000D01*
X97275000Y-73275000D02*
X97275000Y-77137500D01*
X64580000Y-57500000D02*
X66500000Y-57500000D01*
X66500000Y-57500000D02*
X81500000Y-57500000D01*
X61580000Y-54500000D02*
X64580000Y-57500000D01*
X81500000Y-57500000D02*
X97275000Y-73275000D01*
X65012500Y-54500000D02*
X65012500Y-56012500D01*
%TO.N,/TIM3_CH4*%
X95975000Y-74975000D02*
X95975000Y-77137500D01*
X63555000Y-61500000D02*
X65750000Y-61500000D01*
X61555000Y-63500000D02*
X63555000Y-61500000D01*
X65025000Y-62225000D02*
X65750000Y-61500000D01*
X65025000Y-63500000D02*
X65025000Y-62225000D01*
X82500000Y-61500000D02*
X95975000Y-74975000D01*
X65750000Y-61500000D02*
X82500000Y-61500000D01*
%TO.N,/HSE_IN*%
X92725000Y-82862500D02*
X92725000Y-91105000D01*
X96120000Y-99380000D02*
X96000000Y-99500000D01*
X96120000Y-94500000D02*
X96120000Y-99380000D01*
X92725000Y-91105000D02*
X96120000Y-94500000D01*
%TO.N,/HSE_OUT*%
X101000000Y-94500000D02*
X101000000Y-99500000D01*
X93375000Y-86875000D02*
X101000000Y-94500000D01*
X93375000Y-82862500D02*
X93375000Y-86875000D01*
%TO.N,/SWCLK*%
X112900000Y-115385000D02*
X115000000Y-117485000D01*
X92075000Y-77921275D02*
X93478259Y-79324534D01*
X100650000Y-79200000D02*
X112900000Y-91450000D01*
X93478259Y-79324534D02*
X94004017Y-79324534D01*
X92075000Y-77137500D02*
X92075000Y-77921275D01*
X112900000Y-91450000D02*
X112900000Y-115385000D01*
%TO.N,/SWDIO*%
X100650000Y-78400000D02*
X105100000Y-78400000D01*
X92725000Y-77864168D02*
X92725000Y-77137500D01*
X105100000Y-78400000D02*
X117000000Y-90300000D01*
X100650000Y-78400000D02*
X100700000Y-78400000D01*
X93285832Y-78425000D02*
X92725000Y-77864168D01*
X93975000Y-78425000D02*
X93285832Y-78425000D01*
X117000000Y-90300000D02*
X117000000Y-112945000D01*
X117000000Y-112945000D02*
X115000000Y-114945000D01*
D30*
%TO.N,/LED-*%
X83500000Y-82225000D02*
X83500000Y-85750000D01*
D29*
%TO.N,/BOOT0*%
X92075000Y-82862500D02*
X92075000Y-87925000D01*
X92075000Y-87925000D02*
X90750000Y-89250000D01*
X90750000Y-105750000D02*
X97000000Y-112000000D01*
X102250000Y-113500000D02*
X102250000Y-115210000D01*
X102250000Y-115210000D02*
X100000000Y-117460000D01*
X100750000Y-112000000D02*
X102250000Y-113500000D01*
X90750000Y-89250000D02*
X90750000Y-105750000D01*
X97000000Y-112000000D02*
X100750000Y-112000000D01*
%TO.N,/PA1*%
X107460000Y-115000000D02*
X105000000Y-117460000D01*
X95975000Y-85669607D02*
X99695590Y-89390197D01*
X95975000Y-82862500D02*
X95975000Y-85669607D01*
X99695590Y-89390197D02*
X105890197Y-89390197D01*
X105890197Y-89390197D02*
X107500000Y-91000000D01*
X107500000Y-91000000D02*
X107500000Y-115000000D01*
X107500000Y-115000000D02*
X107460000Y-115000000D01*
%TO.N,/TIM14_CH1*%
X63755000Y-52200000D02*
X65750000Y-52200000D01*
X61555000Y-50000000D02*
X63755000Y-52200000D01*
X65025000Y-51475000D02*
X65750000Y-52200000D01*
X65025000Y-50000000D02*
X65025000Y-51475000D01*
%TO.N,/NRST*%
X90000000Y-81500000D02*
X90000000Y-109500000D01*
X90500000Y-81000000D02*
X90000000Y-81500000D01*
X94025000Y-81525000D02*
X93500000Y-81000000D01*
X90000000Y-109500000D02*
X94250000Y-113750000D01*
X93500000Y-81000000D02*
X90500000Y-81000000D01*
X94025000Y-82862500D02*
X94025000Y-81525000D01*
%TO.N,/PA0*%
X95325000Y-85726713D02*
X99598287Y-90000000D01*
X106750000Y-91250000D02*
X106750000Y-113170000D01*
X106750000Y-113170000D02*
X105000000Y-114920000D01*
X99598287Y-90000000D02*
X105500000Y-90000000D01*
X105500000Y-90000000D02*
X106750000Y-91250000D01*
X95325000Y-82862500D02*
X95325000Y-85726713D01*
%TO.N,/PA5*%
X117750000Y-122000000D02*
X116750000Y-123000000D01*
X100700000Y-77200000D02*
X104950000Y-77200000D01*
X105000000Y-121250000D02*
X105000000Y-120000000D01*
X104950000Y-77200000D02*
X117750000Y-90000000D01*
X106750000Y-123000000D02*
X105000000Y-121250000D01*
X97925000Y-77137500D02*
X99237500Y-77137500D01*
X116750000Y-123000000D02*
X106750000Y-123000000D01*
X99237500Y-77137500D02*
X99300000Y-77200000D01*
X117750000Y-90000000D02*
X117750000Y-122000000D01*
%TO.N,/TX*%
X96625000Y-85612500D02*
X99902697Y-88890197D01*
X96625000Y-82862500D02*
X96625000Y-85612500D01*
X99902697Y-88890197D02*
X106390197Y-88890197D01*
X110000000Y-92500000D02*
X110000000Y-114960000D01*
X106390197Y-88890197D02*
X110000000Y-92500000D01*
%TO.N,/RX*%
X97275000Y-85555393D02*
X100109804Y-88390197D01*
X112250000Y-93750000D02*
X112250000Y-115250000D01*
X97275000Y-82862500D02*
X97275000Y-85555393D01*
X112250000Y-115250000D02*
X110000000Y-117500000D01*
X106890197Y-88390197D02*
X112250000Y-93750000D01*
X100109804Y-88390197D02*
X106890197Y-88390197D01*
%TO.N,/TIM1_CH2*%
X65025000Y-68000000D02*
X65025000Y-66725000D01*
X65025000Y-66725000D02*
X65750000Y-66000000D01*
X65750000Y-66000000D02*
X85375000Y-66000000D01*
X85375000Y-66000000D02*
X94025000Y-74650000D01*
X61540000Y-68000000D02*
X63540000Y-66000000D01*
X63540000Y-66000000D02*
X65750000Y-66000000D01*
X94025000Y-74650000D02*
X94025000Y-77137500D01*
%TO.N,Net-(T14C1_LED1-K)*%
X68000000Y-50000000D02*
X68000000Y-47350000D01*
X68000000Y-47350000D02*
X68100000Y-47250000D01*
%TO.N,Net-(T3C1_LED1-K)*%
X68950000Y-54500000D02*
X70450000Y-56000000D01*
X67987500Y-54500000D02*
X68950000Y-54500000D01*
%TO.N,Net-(T3C2_LED1-K)*%
X68000000Y-59000000D02*
X70500000Y-59000000D01*
%TO.N,Net-(T1C2_LED1-K)*%
X68000000Y-68000000D02*
X70500000Y-68000000D01*
%TO.N,Net-(T1C3_LED1-K)*%
X68000000Y-72500000D02*
X70500000Y-72500000D01*
%TD*%
%TA.AperFunction,Conductor*%
%TO.N,VBUS*%
G36*
X62512967Y-74269685D02*
G01*
X62536792Y-74289622D01*
X65750000Y-77750000D01*
X66698638Y-77750000D01*
X66765677Y-77769685D01*
X66786319Y-77786319D01*
X67713681Y-78713681D01*
X67747166Y-78775004D01*
X67750000Y-78801362D01*
X67750000Y-80500000D01*
X68250000Y-81000000D01*
X68250001Y-81000000D01*
X68253318Y-81001374D01*
X68315677Y-81019685D01*
X68336319Y-81036319D01*
X68350000Y-81050000D01*
X69976000Y-81050000D01*
X70043039Y-81069685D01*
X70088794Y-81122489D01*
X70100000Y-81174000D01*
X70100000Y-82550000D01*
X70551097Y-82550000D01*
X70593824Y-82547102D01*
X70778523Y-82501168D01*
X70949021Y-82416610D01*
X71048312Y-82336797D01*
X71112896Y-82310138D01*
X71181640Y-82322628D01*
X71232719Y-82370301D01*
X71250000Y-82433444D01*
X71250000Y-85443251D01*
X71230315Y-85510290D01*
X71177511Y-85556045D01*
X71108353Y-85565989D01*
X71044797Y-85536964D01*
X71020461Y-85508348D01*
X70942315Y-85381654D01*
X70818345Y-85257684D01*
X70669124Y-85165643D01*
X70669119Y-85165641D01*
X70502697Y-85110494D01*
X70502690Y-85110493D01*
X70399986Y-85100000D01*
X70187500Y-85100000D01*
X70187500Y-87899999D01*
X70399972Y-87899999D01*
X70399986Y-87899998D01*
X70502697Y-87889505D01*
X70669119Y-87834358D01*
X70669124Y-87834356D01*
X70818345Y-87742315D01*
X70942315Y-87618345D01*
X71020461Y-87491651D01*
X71072409Y-87444927D01*
X71141372Y-87433704D01*
X71205454Y-87461548D01*
X71244310Y-87519616D01*
X71250000Y-87556748D01*
X71250000Y-87948638D01*
X71230315Y-88015677D01*
X71213681Y-88036319D01*
X70786319Y-88463681D01*
X70724996Y-88497166D01*
X70698638Y-88500000D01*
X69051362Y-88500000D01*
X68984323Y-88480315D01*
X68963681Y-88463681D01*
X68536319Y-88036319D01*
X68502834Y-87974996D01*
X68500000Y-87948638D01*
X68500000Y-87199986D01*
X68775001Y-87199986D01*
X68785494Y-87302697D01*
X68840641Y-87469119D01*
X68840643Y-87469124D01*
X68932684Y-87618345D01*
X69056654Y-87742315D01*
X69205875Y-87834356D01*
X69205880Y-87834358D01*
X69372302Y-87889505D01*
X69372309Y-87889506D01*
X69475019Y-87899999D01*
X69687499Y-87899999D01*
X69687500Y-87899998D01*
X69687500Y-86750000D01*
X68775001Y-86750000D01*
X68775001Y-87199986D01*
X68500000Y-87199986D01*
X68500000Y-85800013D01*
X68775000Y-85800013D01*
X68775000Y-86250000D01*
X69687500Y-86250000D01*
X69687500Y-85100000D01*
X69475029Y-85100000D01*
X69475012Y-85100001D01*
X69372302Y-85110494D01*
X69205880Y-85165641D01*
X69205875Y-85165643D01*
X69056654Y-85257684D01*
X68932684Y-85381654D01*
X68840643Y-85530875D01*
X68840641Y-85530880D01*
X68785494Y-85697302D01*
X68785493Y-85697309D01*
X68775000Y-85800013D01*
X68500000Y-85800013D01*
X68500000Y-84000000D01*
X68000000Y-83500000D01*
X64551362Y-83500000D01*
X64484323Y-83480315D01*
X64463681Y-83463681D01*
X64461681Y-83461681D01*
X64428196Y-83400358D01*
X64433180Y-83330666D01*
X64465223Y-83287861D01*
X64463681Y-83286319D01*
X64474411Y-83275588D01*
X64475052Y-83274733D01*
X64475394Y-83274605D01*
X64500000Y-83250000D01*
X64500000Y-82433012D01*
X64557007Y-82465925D01*
X64684174Y-82500000D01*
X64815826Y-82500000D01*
X64942993Y-82465925D01*
X65000000Y-82433012D01*
X65000000Y-83250000D01*
X66547828Y-83250000D01*
X66547844Y-83249999D01*
X66607372Y-83243598D01*
X66607379Y-83243596D01*
X66742086Y-83193354D01*
X66742093Y-83193350D01*
X66857187Y-83107190D01*
X66857190Y-83107187D01*
X66943350Y-82992093D01*
X66943354Y-82992086D01*
X66993596Y-82857379D01*
X66993598Y-82857372D01*
X66999999Y-82797844D01*
X67000000Y-82797827D01*
X67000000Y-81751096D01*
X68350000Y-81751096D01*
X68352897Y-81793824D01*
X68398831Y-81978523D01*
X68483390Y-82149022D01*
X68483392Y-82149025D01*
X68602632Y-82297366D01*
X68602633Y-82297367D01*
X68750974Y-82416607D01*
X68750977Y-82416609D01*
X68921476Y-82501168D01*
X69106175Y-82547102D01*
X69148903Y-82550000D01*
X69600000Y-82550000D01*
X69600000Y-81550000D01*
X68350000Y-81550000D01*
X68350000Y-81751096D01*
X67000000Y-81751096D01*
X67000000Y-81250000D01*
X65250000Y-81250000D01*
X65250000Y-80750000D01*
X67000000Y-80750000D01*
X67000000Y-79202172D01*
X66999999Y-79202155D01*
X66993598Y-79142627D01*
X66993596Y-79142620D01*
X66943354Y-79007913D01*
X66943350Y-79007906D01*
X66857190Y-78892812D01*
X66857187Y-78892809D01*
X66742093Y-78806649D01*
X66742086Y-78806645D01*
X66607379Y-78756403D01*
X66607372Y-78756401D01*
X66547844Y-78750000D01*
X65000000Y-78750000D01*
X65000000Y-79566988D01*
X64942993Y-79534075D01*
X64815826Y-79500000D01*
X64684174Y-79500000D01*
X64557007Y-79534075D01*
X64500000Y-79566988D01*
X64500000Y-78750000D01*
X62952155Y-78750000D01*
X62892627Y-78756401D01*
X62892620Y-78756403D01*
X62757913Y-78806645D01*
X62757906Y-78806649D01*
X62642812Y-78892809D01*
X62642809Y-78892812D01*
X62556649Y-79007906D01*
X62556645Y-79007913D01*
X62506403Y-79142620D01*
X62506401Y-79142627D01*
X62500000Y-79202155D01*
X62500000Y-80750000D01*
X64250000Y-80750000D01*
X64250000Y-81250000D01*
X62500000Y-81250000D01*
X62463681Y-81286319D01*
X62461415Y-81284053D01*
X62427511Y-81313432D01*
X62358353Y-81323376D01*
X62294797Y-81294351D01*
X62288319Y-81288319D01*
X61536319Y-80536319D01*
X61502834Y-80474996D01*
X61500000Y-80448638D01*
X61500000Y-79000000D01*
X60000000Y-77500000D01*
X55793497Y-77500000D01*
X55726458Y-77480315D01*
X55716035Y-77472828D01*
X54546538Y-76537230D01*
X54506486Y-76479979D01*
X54500000Y-76440402D01*
X54500000Y-74551362D01*
X54519685Y-74484323D01*
X54536319Y-74463681D01*
X54713681Y-74286319D01*
X54775004Y-74252834D01*
X54801362Y-74250000D01*
X62445928Y-74250000D01*
X62512967Y-74269685D01*
G37*
%TD.AperFunction*%
%TD*%
%TA.AperFunction,Conductor*%
%TO.N,GND*%
G36*
X69984372Y-74319685D02*
G01*
X70030127Y-74372489D01*
X70031795Y-74376308D01*
X70407629Y-75278310D01*
X70415243Y-75347761D01*
X70384099Y-75410306D01*
X70324084Y-75446084D01*
X70293167Y-75450000D01*
X70100000Y-75450000D01*
X70100000Y-76826000D01*
X70080315Y-76893039D01*
X70027511Y-76938794D01*
X69976000Y-76950000D01*
X68350000Y-76950000D01*
X68336319Y-76963681D01*
X68274996Y-76997166D01*
X68248638Y-77000000D01*
X67551362Y-77000000D01*
X67484323Y-76980315D01*
X67463681Y-76963681D01*
X67036319Y-76536319D01*
X67002834Y-76474996D01*
X67000000Y-76448638D01*
X67000000Y-76248903D01*
X68350000Y-76248903D01*
X68350000Y-76450000D01*
X69600000Y-76450000D01*
X69600000Y-75450000D01*
X69148903Y-75450000D01*
X69106175Y-75452897D01*
X68921476Y-75498831D01*
X68750977Y-75583390D01*
X68750974Y-75583392D01*
X68602633Y-75702632D01*
X68602632Y-75702633D01*
X68483392Y-75850974D01*
X68483390Y-75850977D01*
X68398831Y-76021476D01*
X68352897Y-76206175D01*
X68350000Y-76248903D01*
X67000000Y-76248903D01*
X67000000Y-75544893D01*
X67019685Y-75477854D01*
X67028736Y-75465516D01*
X67962819Y-74344616D01*
X68020858Y-74305718D01*
X68058078Y-74300000D01*
X69917333Y-74300000D01*
X69984372Y-74319685D01*
G37*
%TD.AperFunction*%
%TD*%
%TA.AperFunction,Conductor*%
%TO.N,GND*%
G36*
X58767426Y-78269685D02*
G01*
X58788428Y-78286680D01*
X58964042Y-78463744D01*
X58997274Y-78525203D01*
X59000000Y-78551063D01*
X59000000Y-79566988D01*
X58942993Y-79534075D01*
X58815826Y-79500000D01*
X58684174Y-79500000D01*
X58557007Y-79534075D01*
X58500000Y-79566988D01*
X58500000Y-78750000D01*
X57935817Y-78750000D01*
X57935802Y-78750001D01*
X57803667Y-78760400D01*
X57585480Y-78815377D01*
X57380625Y-78908428D01*
X57380619Y-78908431D01*
X57195676Y-79036559D01*
X57195664Y-79036569D01*
X57036569Y-79195664D01*
X57036559Y-79195676D01*
X56908431Y-79380619D01*
X56908428Y-79380625D01*
X56815377Y-79585480D01*
X56760400Y-79803667D01*
X56750000Y-79935803D01*
X56750000Y-80750000D01*
X58250000Y-80750000D01*
X58250000Y-81250000D01*
X56750001Y-81250000D01*
X56750001Y-82064197D01*
X56760400Y-82196332D01*
X56815377Y-82414519D01*
X56908428Y-82619374D01*
X56908431Y-82619380D01*
X57036559Y-82804323D01*
X57036569Y-82804335D01*
X57195664Y-82963430D01*
X57195676Y-82963440D01*
X57380619Y-83091568D01*
X57380625Y-83091571D01*
X57585480Y-83184622D01*
X57803667Y-83239599D01*
X57935810Y-83249999D01*
X58499999Y-83249999D01*
X58500000Y-83249998D01*
X58500000Y-82433012D01*
X58557007Y-82465925D01*
X58684174Y-82500000D01*
X58815826Y-82500000D01*
X58942993Y-82465925D01*
X59000000Y-82433012D01*
X59000000Y-83490402D01*
X58980315Y-83557441D01*
X58953462Y-83587230D01*
X58783965Y-83722828D01*
X58719319Y-83749336D01*
X58706503Y-83750000D01*
X56249036Y-83750000D01*
X56181997Y-83730315D01*
X56164227Y-83716463D01*
X55439191Y-83036741D01*
X55403747Y-82976529D01*
X55400000Y-82946278D01*
X55400000Y-79055957D01*
X55419685Y-78988918D01*
X55441959Y-78962977D01*
X55503782Y-78908428D01*
X56214844Y-78281020D01*
X56278136Y-78251426D01*
X56296885Y-78250000D01*
X58700387Y-78250000D01*
X58767426Y-78269685D01*
G37*
%TD.AperFunction*%
%TD*%
%TA.AperFunction,Conductor*%
%TO.N,+3V3*%
G36*
X77265677Y-76269685D02*
G01*
X77286319Y-76286319D01*
X78500000Y-77500000D01*
X87948638Y-77500000D01*
X88015677Y-77519685D01*
X88036319Y-77536319D01*
X88713681Y-78213681D01*
X88747166Y-78275004D01*
X88750000Y-78301362D01*
X88750000Y-79948638D01*
X88730315Y-80015677D01*
X88713681Y-80036319D01*
X88036319Y-80713681D01*
X87974996Y-80747166D01*
X87948638Y-80750000D01*
X78499999Y-80750000D01*
X77286319Y-81963681D01*
X77224996Y-81997166D01*
X77198638Y-82000000D01*
X75051362Y-82000000D01*
X74984323Y-81980315D01*
X74963681Y-81963681D01*
X74036319Y-81036319D01*
X74002834Y-80974996D01*
X74000000Y-80948638D01*
X74000000Y-80458000D01*
X74650000Y-80458000D01*
X74660608Y-80577325D01*
X74660609Y-80577328D01*
X74716557Y-80772861D01*
X74810721Y-80953129D01*
X74939246Y-81110753D01*
X75096870Y-81239278D01*
X75277138Y-81333442D01*
X75472671Y-81389390D01*
X75472674Y-81389391D01*
X75591999Y-81399999D01*
X75592002Y-81400000D01*
X75900000Y-81400000D01*
X76400000Y-81400000D01*
X76707998Y-81400000D01*
X76708000Y-81399999D01*
X76827325Y-81389391D01*
X76827328Y-81389390D01*
X77022861Y-81333442D01*
X77203129Y-81239278D01*
X77360753Y-81110753D01*
X77489278Y-80953129D01*
X77583442Y-80772861D01*
X77639390Y-80577328D01*
X77639391Y-80577325D01*
X77649999Y-80458000D01*
X77650000Y-80457998D01*
X77650000Y-79462486D01*
X78600001Y-79462486D01*
X78610494Y-79565197D01*
X78665641Y-79731619D01*
X78665643Y-79731624D01*
X78757684Y-79880845D01*
X78881654Y-80004815D01*
X79030875Y-80096856D01*
X79030880Y-80096858D01*
X79197302Y-80152005D01*
X79197309Y-80152006D01*
X79300019Y-80162499D01*
X79749999Y-80162499D01*
X80250000Y-80162499D01*
X80699972Y-80162499D01*
X80699986Y-80162498D01*
X80802697Y-80152005D01*
X80969119Y-80096858D01*
X80969124Y-80096856D01*
X81118345Y-80004815D01*
X81242315Y-79880845D01*
X81315321Y-79762485D01*
X82125000Y-79762485D01*
X82135493Y-79865189D01*
X82135494Y-79865196D01*
X82190641Y-80031618D01*
X82190643Y-80031623D01*
X82282684Y-80180844D01*
X82406655Y-80304815D01*
X82555876Y-80396856D01*
X82555881Y-80396858D01*
X82722303Y-80452005D01*
X82722310Y-80452006D01*
X82825014Y-80462499D01*
X82825027Y-80462500D01*
X83250000Y-80462500D01*
X83750000Y-80462500D01*
X84174973Y-80462500D01*
X84174985Y-80462499D01*
X84277689Y-80452006D01*
X84277696Y-80452005D01*
X84444118Y-80396858D01*
X84444123Y-80396856D01*
X84593344Y-80304815D01*
X84717315Y-80180844D01*
X84809356Y-80031623D01*
X84809358Y-80031618D01*
X84864505Y-79865196D01*
X84864506Y-79865189D01*
X84874999Y-79762485D01*
X84875000Y-79762472D01*
X84875000Y-79500000D01*
X83750000Y-79500000D01*
X83750000Y-80462500D01*
X83250000Y-80462500D01*
X83250000Y-79500000D01*
X82125000Y-79500000D01*
X82125000Y-79762485D01*
X81315321Y-79762485D01*
X81334356Y-79731624D01*
X81334358Y-79731619D01*
X81389505Y-79565197D01*
X81389506Y-79565190D01*
X81399999Y-79462486D01*
X85600001Y-79462486D01*
X85610494Y-79565197D01*
X85665641Y-79731619D01*
X85665643Y-79731624D01*
X85757684Y-79880845D01*
X85881654Y-80004815D01*
X86030875Y-80096856D01*
X86030880Y-80096858D01*
X86197302Y-80152005D01*
X86197309Y-80152006D01*
X86300019Y-80162499D01*
X86749999Y-80162499D01*
X87250000Y-80162499D01*
X87699972Y-80162499D01*
X87699986Y-80162498D01*
X87802697Y-80152005D01*
X87969119Y-80096858D01*
X87969124Y-80096856D01*
X88118345Y-80004815D01*
X88242315Y-79880845D01*
X88334356Y-79731624D01*
X88334358Y-79731619D01*
X88389505Y-79565197D01*
X88389506Y-79565190D01*
X88399999Y-79462486D01*
X88400000Y-79462473D01*
X88400000Y-79250000D01*
X87250000Y-79250000D01*
X87250000Y-80162499D01*
X86749999Y-80162499D01*
X86750000Y-80162498D01*
X86750000Y-79250000D01*
X85600001Y-79250000D01*
X85600001Y-79462486D01*
X81399999Y-79462486D01*
X81400000Y-79462473D01*
X81400000Y-79250000D01*
X80250000Y-79250000D01*
X80250000Y-80162499D01*
X79749999Y-80162499D01*
X79750000Y-80162498D01*
X79750000Y-79250000D01*
X78600001Y-79250000D01*
X78600001Y-79462486D01*
X77650000Y-79462486D01*
X77650000Y-79250000D01*
X76400000Y-79250000D01*
X76400000Y-81400000D01*
X75900000Y-81400000D01*
X75900000Y-79250000D01*
X74650000Y-79250000D01*
X74650000Y-80458000D01*
X74000000Y-80458000D01*
X74000000Y-77541999D01*
X74650000Y-77541999D01*
X74650000Y-78750000D01*
X75900000Y-78750000D01*
X76400000Y-78750000D01*
X77650000Y-78750000D01*
X77650000Y-78537513D01*
X78600000Y-78537513D01*
X78600000Y-78750000D01*
X79750000Y-78750000D01*
X80250000Y-78750000D01*
X81399999Y-78750000D01*
X81399999Y-78737514D01*
X82125000Y-78737514D01*
X82125000Y-79000000D01*
X83250000Y-79000000D01*
X83750000Y-79000000D01*
X84875000Y-79000000D01*
X84875000Y-78737527D01*
X84874999Y-78737514D01*
X84864506Y-78634810D01*
X84864505Y-78634803D01*
X84832266Y-78537513D01*
X85600000Y-78537513D01*
X85600000Y-78750000D01*
X86750000Y-78750000D01*
X87250000Y-78750000D01*
X88399999Y-78750000D01*
X88399999Y-78537528D01*
X88399998Y-78537513D01*
X88389505Y-78434802D01*
X88334358Y-78268380D01*
X88334356Y-78268375D01*
X88242315Y-78119154D01*
X88118345Y-77995184D01*
X87969124Y-77903143D01*
X87969119Y-77903141D01*
X87802697Y-77847994D01*
X87802690Y-77847993D01*
X87699986Y-77837500D01*
X87250000Y-77837500D01*
X87250000Y-78750000D01*
X86750000Y-78750000D01*
X86750000Y-77837500D01*
X86300028Y-77837500D01*
X86300012Y-77837501D01*
X86197302Y-77847994D01*
X86030880Y-77903141D01*
X86030875Y-77903143D01*
X85881654Y-77995184D01*
X85757684Y-78119154D01*
X85665643Y-78268375D01*
X85665641Y-78268380D01*
X85610494Y-78434802D01*
X85610493Y-78434809D01*
X85600000Y-78537513D01*
X84832266Y-78537513D01*
X84809358Y-78468381D01*
X84809356Y-78468376D01*
X84717315Y-78319155D01*
X84593344Y-78195184D01*
X84444123Y-78103143D01*
X84444118Y-78103141D01*
X84277696Y-78047994D01*
X84277689Y-78047993D01*
X84174985Y-78037500D01*
X83750000Y-78037500D01*
X83750000Y-79000000D01*
X83250000Y-79000000D01*
X83250000Y-78037500D01*
X82825014Y-78037500D01*
X82722310Y-78047993D01*
X82722303Y-78047994D01*
X82555881Y-78103141D01*
X82555876Y-78103143D01*
X82406655Y-78195184D01*
X82282684Y-78319155D01*
X82190643Y-78468376D01*
X82190641Y-78468381D01*
X82135494Y-78634803D01*
X82135493Y-78634810D01*
X82125000Y-78737514D01*
X81399999Y-78737514D01*
X81399999Y-78537528D01*
X81399998Y-78537513D01*
X81389505Y-78434802D01*
X81334358Y-78268380D01*
X81334356Y-78268375D01*
X81242315Y-78119154D01*
X81118345Y-77995184D01*
X80969124Y-77903143D01*
X80969119Y-77903141D01*
X80802697Y-77847994D01*
X80802690Y-77847993D01*
X80699986Y-77837500D01*
X80250000Y-77837500D01*
X80250000Y-78750000D01*
X79750000Y-78750000D01*
X79750000Y-77837500D01*
X79300028Y-77837500D01*
X79300012Y-77837501D01*
X79197302Y-77847994D01*
X79030880Y-77903141D01*
X79030875Y-77903143D01*
X78881654Y-77995184D01*
X78757684Y-78119154D01*
X78665643Y-78268375D01*
X78665641Y-78268380D01*
X78610494Y-78434802D01*
X78610493Y-78434809D01*
X78600000Y-78537513D01*
X77650000Y-78537513D01*
X77650000Y-77542002D01*
X77649999Y-77541999D01*
X77639391Y-77422674D01*
X77639390Y-77422671D01*
X77583442Y-77227138D01*
X77489278Y-77046870D01*
X77360753Y-76889246D01*
X77203129Y-76760721D01*
X77022861Y-76666557D01*
X76827328Y-76610609D01*
X76827325Y-76610608D01*
X76708000Y-76600000D01*
X76400000Y-76600000D01*
X76400000Y-78750000D01*
X75900000Y-78750000D01*
X75900000Y-76600000D01*
X75591999Y-76600000D01*
X75472674Y-76610608D01*
X75472671Y-76610609D01*
X75277138Y-76666557D01*
X75096870Y-76760721D01*
X74939246Y-76889246D01*
X74810721Y-77046870D01*
X74716557Y-77227138D01*
X74660609Y-77422671D01*
X74660608Y-77422674D01*
X74650000Y-77541999D01*
X74000000Y-77541999D01*
X74000000Y-77301362D01*
X74019685Y-77234323D01*
X74036319Y-77213681D01*
X74963681Y-76286319D01*
X75025004Y-76252834D01*
X75051362Y-76250000D01*
X77198638Y-76250000D01*
X77265677Y-76269685D01*
G37*
%TD.AperFunction*%
%TD*%
M02*
