%TF.GenerationSoftware,KiCad,Pcbnew,8.0.6*%
%TF.CreationDate,2025-01-24T14:08:05+11:00*%
%TF.ProjectId,STM32F070F6P6-Robot-Arm-2,53544d33-3246-4303-9730-463650362d52,rev?*%
%TF.SameCoordinates,Original*%
%TF.FileFunction,Soldermask,Bot*%
%TF.FilePolarity,Negative*%
%FSLAX46Y46*%
G04 Gerber Fmt 4.6, Leading zero omitted, Abs format (unit mm)*
G04 Created by KiCad (PCBNEW 8.0.6) date 2025-01-24 14:08:05*
%MOMM*%
%LPD*%
G01*
G04 APERTURE LIST*
G04 Aperture macros list*
%AMRoundRect*
0 Rectangle with rounded corners*
0 $1 Rounding radius*
0 $2 $3 $4 $5 $6 $7 $8 $9 X,Y pos of 4 corners*
0 Add a 4 corners polygon primitive as box body*
4,1,4,$2,$3,$4,$5,$6,$7,$8,$9,$2,$3,0*
0 Add four circle primitives for the rounded corners*
1,1,$1+$1,$2,$3*
1,1,$1+$1,$4,$5*
1,1,$1+$1,$6,$7*
1,1,$1+$1,$8,$9*
0 Add four rect primitives between the rounded corners*
20,1,$1+$1,$2,$3,$4,$5,0*
20,1,$1+$1,$4,$5,$6,$7,0*
20,1,$1+$1,$6,$7,$8,$9,0*
20,1,$1+$1,$8,$9,$2,$3,0*%
G04 Aperture macros list end*
%ADD10C,3.200000*%
%ADD11R,1.700000X1.700000*%
%ADD12O,1.700000X1.700000*%
%ADD13R,3.500000X3.500000*%
%ADD14RoundRect,0.750000X-0.750000X-1.000000X0.750000X-1.000000X0.750000X1.000000X-0.750000X1.000000X0*%
%ADD15RoundRect,0.875000X-0.875000X-0.875000X0.875000X-0.875000X0.875000X0.875000X-0.875000X0.875000X0*%
%ADD16C,1.500000*%
%ADD17C,1.600000*%
%ADD18C,2.000000*%
G04 APERTURE END LIST*
D10*
%TO.C,H2*%
X125000000Y-100000000D03*
%TD*%
D11*
%TO.C,TIM3_CH1*%
X56500000Y-54500000D03*
D12*
X59040000Y-54500000D03*
X61580000Y-54500000D03*
%TD*%
D13*
%TO.C,J10*%
X64750000Y-81000000D03*
D14*
X58750000Y-81000000D03*
D15*
X61750000Y-85700000D03*
%TD*%
D16*
%TO.C,Y1*%
X101000000Y-94500000D03*
X96120000Y-94500000D03*
%TD*%
D11*
%TO.C,TIM1_CH3*%
X56460000Y-72500000D03*
D12*
X59000000Y-72500000D03*
X61540000Y-72500000D03*
%TD*%
D11*
%TO.C,J7*%
X100000000Y-114920000D03*
D12*
X100000000Y-117460000D03*
X100000000Y-120000000D03*
%TD*%
D11*
%TO.C,TIM1_CH2*%
X56460000Y-68000000D03*
D12*
X59000000Y-68000000D03*
X61540000Y-68000000D03*
%TD*%
D11*
%TO.C,J6*%
X110000000Y-120040000D03*
D12*
X110000000Y-117500000D03*
X110000000Y-114960000D03*
%TD*%
D17*
%TO.C,C4_10p1*%
X96000000Y-99500000D03*
X96000000Y-102000000D03*
%TD*%
D18*
%TO.C,RESET1*%
X89750000Y-120250000D03*
X89750000Y-113750000D03*
X94250000Y-120250000D03*
X94250000Y-113750000D03*
%TD*%
D17*
%TO.C,C5_10p1*%
X101000000Y-99500000D03*
X101000000Y-102000000D03*
%TD*%
D11*
%TO.C,TIM14_CH1*%
X56475000Y-50000000D03*
D12*
X59015000Y-50000000D03*
X61555000Y-50000000D03*
%TD*%
D11*
%TO.C,TIM3_CH2*%
X56445000Y-59000000D03*
D12*
X58985000Y-59000000D03*
X61525000Y-59000000D03*
%TD*%
D11*
%TO.C,TIM3_CH4*%
X56475000Y-63500000D03*
D12*
X59015000Y-63500000D03*
X61555000Y-63500000D03*
%TD*%
D10*
%TO.C,H1*%
X75000000Y-50000000D03*
%TD*%
D11*
%TO.C,J8*%
X115000000Y-120025000D03*
D12*
X115000000Y-117485000D03*
X115000000Y-114945000D03*
%TD*%
D11*
%TO.C,J9*%
X105000000Y-120000000D03*
D12*
X105000000Y-117460000D03*
X105000000Y-114920000D03*
%TD*%
M02*
