%TF.GenerationSoftware,KiCad,Pcbnew,8.0.6*%
%TF.CreationDate,2025-01-24T14:08:05+11:00*%
%TF.ProjectId,STM32F070F6P6-Robot-Arm-2,53544d33-3246-4303-9730-463650362d52,rev?*%
%TF.SameCoordinates,Original*%
%TF.FileFunction,Soldermask,Top*%
%TF.FilePolarity,Negative*%
%FSLAX46Y46*%
G04 Gerber Fmt 4.6, Leading zero omitted, Abs format (unit mm)*
G04 Created by KiCad (PCBNEW 8.0.6) date 2025-01-24 14:08:05*
%MOMM*%
%LPD*%
G01*
G04 APERTURE LIST*
G04 Aperture macros list*
%AMRoundRect*
0 Rectangle with rounded corners*
0 $1 Rounding radius*
0 $2 $3 $4 $5 $6 $7 $8 $9 X,Y pos of 4 corners*
0 Add a 4 corners polygon primitive as box body*
4,1,4,$2,$3,$4,$5,$6,$7,$8,$9,$2,$3,0*
0 Add four circle primitives for the rounded corners*
1,1,$1+$1,$2,$3*
1,1,$1+$1,$4,$5*
1,1,$1+$1,$6,$7*
1,1,$1+$1,$8,$9*
0 Add four rect primitives between the rounded corners*
20,1,$1+$1,$2,$3,$4,$5,0*
20,1,$1+$1,$4,$5,$6,$7,0*
20,1,$1+$1,$6,$7,$8,$9,0*
20,1,$1+$1,$8,$9,$2,$3,0*%
G04 Aperture macros list end*
%ADD10C,3.200000*%
%ADD11RoundRect,0.250001X0.462499X0.624999X-0.462499X0.624999X-0.462499X-0.624999X0.462499X-0.624999X0*%
%ADD12R,1.700000X1.700000*%
%ADD13O,1.700000X1.700000*%
%ADD14R,3.500000X3.500000*%
%ADD15RoundRect,0.750000X-0.750000X-1.000000X0.750000X-1.000000X0.750000X1.000000X-0.750000X1.000000X0*%
%ADD16RoundRect,0.875000X-0.875000X-0.875000X0.875000X-0.875000X0.875000X0.875000X-0.875000X0.875000X0*%
%ADD17RoundRect,0.250000X0.400000X0.625000X-0.400000X0.625000X-0.400000X-0.625000X0.400000X-0.625000X0*%
%ADD18C,1.500000*%
%ADD19RoundRect,0.250000X-0.625000X0.400000X-0.625000X-0.400000X0.625000X-0.400000X0.625000X0.400000X0*%
%ADD20RoundRect,0.250000X0.650000X-0.412500X0.650000X0.412500X-0.650000X0.412500X-0.650000X-0.412500X0*%
%ADD21RoundRect,0.250000X-0.400000X-0.625000X0.400000X-0.625000X0.400000X0.625000X-0.400000X0.625000X0*%
%ADD22RoundRect,0.250001X0.624999X-0.462499X0.624999X0.462499X-0.624999X0.462499X-0.624999X-0.462499X0*%
%ADD23C,1.600000*%
%ADD24C,2.000000*%
%ADD25RoundRect,0.375000X-0.625000X-0.375000X0.625000X-0.375000X0.625000X0.375000X-0.625000X0.375000X0*%
%ADD26RoundRect,0.500000X-0.500000X-1.400000X0.500000X-1.400000X0.500000X1.400000X-0.500000X1.400000X0*%
%ADD27RoundRect,0.250000X-0.412500X-0.650000X0.412500X-0.650000X0.412500X0.650000X-0.412500X0.650000X0*%
%ADD28RoundRect,0.100000X0.100000X-0.637500X0.100000X0.637500X-0.100000X0.637500X-0.100000X-0.637500X0*%
G04 APERTURE END LIST*
D10*
%TO.C,H2*%
X125000000Y-100000000D03*
%TD*%
D11*
%TO.C,T3C4_LED1*%
X68000000Y-63500000D03*
X65025000Y-63500000D03*
%TD*%
D12*
%TO.C,TIM3_CH1*%
X56500000Y-54500000D03*
D13*
X59040000Y-54500000D03*
X61580000Y-54500000D03*
%TD*%
D14*
%TO.C,J10*%
X64750000Y-81000000D03*
D15*
X58750000Y-81000000D03*
D16*
X61750000Y-85700000D03*
%TD*%
D17*
%TO.C,R1_1k6*%
X73600000Y-72500000D03*
X70500000Y-72500000D03*
%TD*%
D11*
%TO.C,T3C1_LED1*%
X67987500Y-54500000D03*
X65012500Y-54500000D03*
%TD*%
D17*
%TO.C,R1_1k4*%
X73600000Y-59000000D03*
X70500000Y-59000000D03*
%TD*%
D18*
%TO.C,Y1*%
X101000000Y-94500000D03*
X96120000Y-94500000D03*
%TD*%
D12*
%TO.C,TIM1_CH3*%
X56460000Y-72500000D03*
D13*
X59000000Y-72500000D03*
X61540000Y-72500000D03*
%TD*%
D12*
%TO.C,J7*%
X100000000Y-114920000D03*
D13*
X100000000Y-117460000D03*
X100000000Y-120000000D03*
%TD*%
D19*
%TO.C,R1_1k1*%
X83500000Y-85750000D03*
X83500000Y-88850000D03*
%TD*%
D11*
%TO.C,T1C3_LED1*%
X68000000Y-72500000D03*
X65025000Y-72500000D03*
%TD*%
D20*
%TO.C,C1_100n1*%
X87000000Y-79000000D03*
X87000000Y-75875000D03*
%TD*%
D21*
%TO.C,R1_1k2*%
X65000000Y-47250000D03*
X68100000Y-47250000D03*
%TD*%
%TO.C,R2_1k1*%
X86900000Y-84500000D03*
X90000000Y-84500000D03*
%TD*%
D12*
%TO.C,TIM1_CH2*%
X56460000Y-68000000D03*
D13*
X59000000Y-68000000D03*
X61540000Y-68000000D03*
%TD*%
D12*
%TO.C,J6*%
X110000000Y-120040000D03*
D13*
X110000000Y-117500000D03*
X110000000Y-114960000D03*
%TD*%
D22*
%TO.C,PWR_LED1*%
X83500000Y-82225000D03*
X83500000Y-79250000D03*
%TD*%
D17*
%TO.C,R1_1k7*%
X73600000Y-63500000D03*
X70500000Y-63500000D03*
%TD*%
D23*
%TO.C,C4_10p1*%
X96000000Y-99500000D03*
X96000000Y-102000000D03*
%TD*%
D24*
%TO.C,RESET1*%
X89750000Y-120250000D03*
X89750000Y-113750000D03*
X94250000Y-120250000D03*
X94250000Y-113750000D03*
%TD*%
D25*
%TO.C,U2_AMS1117-3.3*%
X69850000Y-76700000D03*
X69850000Y-79000000D03*
D26*
X76150000Y-79000000D03*
D25*
X69850000Y-81300000D03*
%TD*%
D23*
%TO.C,C5_10p1*%
X101000000Y-99500000D03*
X101000000Y-102000000D03*
%TD*%
D12*
%TO.C,TIM14_CH1*%
X56475000Y-50000000D03*
D13*
X59015000Y-50000000D03*
X61555000Y-50000000D03*
%TD*%
D12*
%TO.C,TIM3_CH2*%
X56445000Y-59000000D03*
D13*
X58985000Y-59000000D03*
X61525000Y-59000000D03*
%TD*%
D12*
%TO.C,TIM3_CH4*%
X56475000Y-63500000D03*
D13*
X59015000Y-63500000D03*
X61555000Y-63500000D03*
%TD*%
D17*
%TO.C,R1_1k3*%
X73550000Y-56000000D03*
X70450000Y-56000000D03*
%TD*%
D11*
%TO.C,T3C2_LED1*%
X68000000Y-59000000D03*
X65025000Y-59000000D03*
%TD*%
D20*
%TO.C,C3_22u1*%
X80000000Y-79000000D03*
X80000000Y-75875000D03*
%TD*%
D17*
%TO.C,R1_1k5*%
X73600000Y-68000000D03*
X70500000Y-68000000D03*
%TD*%
D10*
%TO.C,H1*%
X75000000Y-50000000D03*
%TD*%
D11*
%TO.C,T1C2_LED1*%
X68000000Y-68000000D03*
X65025000Y-68000000D03*
%TD*%
D12*
%TO.C,J8*%
X115000000Y-120025000D03*
D13*
X115000000Y-117485000D03*
X115000000Y-114945000D03*
%TD*%
D27*
%TO.C,C2_22u1*%
X69937500Y-86500000D03*
X73062500Y-86500000D03*
%TD*%
D12*
%TO.C,J9*%
X105000000Y-120000000D03*
D13*
X105000000Y-117460000D03*
X105000000Y-114920000D03*
%TD*%
D11*
%TO.C,T14C1_LED1*%
X68000000Y-50000000D03*
X65025000Y-50000000D03*
%TD*%
D28*
%TO.C,U1*%
X92075000Y-82862500D03*
X92725000Y-82862500D03*
X93375000Y-82862500D03*
X94025000Y-82862500D03*
X94675000Y-82862500D03*
X95325000Y-82862500D03*
X95975000Y-82862500D03*
X96625000Y-82862500D03*
X97275000Y-82862500D03*
X97925000Y-82862500D03*
X97925000Y-77137500D03*
X97275000Y-77137500D03*
X96625000Y-77137500D03*
X95975000Y-77137500D03*
X95325000Y-77137500D03*
X94675000Y-77137500D03*
X94025000Y-77137500D03*
X93375000Y-77137500D03*
X92725000Y-77137500D03*
X92075000Y-77137500D03*
%TD*%
M02*
